<svg width="92" height="92" fill="none" xmlns="http://www.w3.org/2000/svg"><path d="M91 46c0 24.853-20.147 45-45 45S1 70.853 1 46 21.147 1 46 1s45 20.147 45 45z" fill="#fff" stroke="#E27418" stroke-width="2"/><path d="M67.132 29.52h1.699a1.074 1.074 0 000-2.146h-4.08c-.592 0-1.073.48-1.073 1.073v4.08a1.074 1.074 0 002.147 0v-1.182A25.27 25.27 0 0170.853 46.5c0 13.98-11.373 25.353-25.353 25.353-13.98 0-25.353-11.373-25.353-25.353 0-13.98 11.373-25.353 25.353-25.353 1.034 0 2.075.063 3.093.187a1.074 1.074 0 00.26-2.132A27.89 27.89 0 0045.5 19c-7.346 0-14.251 2.86-19.445 8.055C20.86 32.249 18 39.155 18 46.5c0 7.346 2.86 14.251 8.055 19.445C31.249 71.14 38.155 74 45.5 74c7.346 0 14.251-2.86 19.445-8.055C70.14 60.751 73 53.845 73 46.5a27.41 27.41 0 00-5.868-16.98z" fill="#2D3F84"/><path d="M29.648 35.214a1.074 1.074 0 00-1.482.333 20.582 20.582 0 00-3.055 13.108 20.552 20.552 0 005.893 12.347c3.998 3.997 9.248 5.996 14.5 5.996 5.25 0 10.5-1.999 14.498-5.996 7.994-7.995 7.994-21.003 0-28.998a20.553 20.553 0 00-12.327-5.89 20.583 20.583 0 00-13.092 3.03 1.073 1.073 0 101.144 1.816c7.294-4.596 16.651-3.543 22.757 2.563 7.157 7.157 7.157 18.803 0 25.96-7.158 7.158-18.804 7.158-25.961 0-6.021-6.02-7.09-15.604-2.543-22.787a1.074 1.074 0 00-.332-1.482z" fill="#2D3F84"/><path d="M59.074 47.147h1.323a1.074 1.074 0 000-2.147h-1.323a1.074 1.074 0 000 2.147zM29 46.074c0 .592.48 1.073 1.073 1.073h1.324a1.074 1.074 0 000-2.147h-1.323C29.48 45 29 45.48 29 46.074zm17.147-13.677v-1.323a1.074 1.074 0 00-2.147 0v1.323a1.074 1.074 0 002.147 0zM44 60.074v1.323a1.074 1.074 0 002.147 0v-1.323a1.074 1.074 0 00-2.147 0zm-4.167-20.057a1.074 1.074 0 00-1.519 1.518l3.639 3.639a3.675 3.675 0 00-.438 1.742 3.702 3.702 0 003.699 3.699 3.702 3.702 0 003.698-3.699c0-.63-.159-1.223-.438-1.742l7.342-7.341a1.074 1.074 0 00-1.519-1.519l-7.34 7.341a3.675 3.675 0 00-1.743-.437c-.63 0-1.224.159-1.743.437l-3.638-3.638zm6.932 6.9c0 .855-.696 1.55-1.551 1.55a1.553 1.553 0 01-1.552-1.55 1.552 1.552 0 013.102-.001zM32.833 33.833c.2-.2.315-.477.315-.76a1.08 1.08 0 00-.316-.758 1.08 1.08 0 00-.758-.315c-.283 0-.56.115-.76.315-.199.2-.314.476-.314.759 0 .283.115.559.314.759.2.2.477.314.76.314.283 0 .559-.115.759-.314zm20.241-11.686a1.078 1.078 0 001.074-1.073c0-.283-.115-.56-.314-.76a1.086 1.086 0 00-.76-.314c-.283 0-.56.115-.76.314-.199.2-.314.477-.314.76a1.077 1.077 0 001.074 1.073z" fill="#2D3F84"/></svg>