<svg width="108" height="108" fill="none" xmlns="http://www.w3.org/2000/svg"><g filter="url(#filter0_dd)"><path d="M102 52c0 25.405-20.595 46-46 46S10 77.405 10 52 30.595 6 56 6s46 20.595 46 46z" fill="#fff"/><path d="M101 52c0 24.853-20.147 45-45 45S11 76.853 11 52 31.147 7 56 7s45 20.147 45 45z" stroke="#E27418" stroke-width="2"/></g><path d="M78.417 26h-38.5a4.589 4.589 0 00-4.584 4.583v35.75h-6.416a.917.917 0 00-.917.917v1.833a4.589 4.589 0 004.583 4.584h28.439v4.583a.917.917 0 001.467.733l3.116-2.337 3.117 2.337a.91.91 0 00.55.184.925.925 0 00.41-.092.916.916 0 00.507-.825v-4.583h.894a4.589 4.589 0 004.584-4.584v-35.75h6.416c.507 0 .917-.41.917-.916v-1.834A4.589 4.589 0 0078.417 26zM61.022 71.833H32.583a2.75 2.75 0 01-2.75-2.75v-.916h31.189v3.666zm7.333 4.584l-2.2-1.65a.916.916 0 00-1.1 0l-2.2 1.65V66.178a2.7 2.7 0 00.532-.01 2.793 2.793 0 004.415 0c.182.022.367.026.55.01l.003 10.239zm1.18-14.685a.916.916 0 00-.521 1.257.954.954 0 01-1.266 1.273.917.917 0 00-1.258.52.95.95 0 01-1.791 0 .917.917 0 00-1.259-.52.953.953 0 01-1.265-1.273.916.916 0 00-.52-1.257.954.954 0 010-1.797.916.916 0 00.52-1.257.952.952 0 011.265-1.273.918.918 0 001.259-.52.95.95 0 011.79 0 .918.918 0 001.26.52.953.953 0 011.265 1.272.915.915 0 00.52 1.258.955.955 0 010 1.797zm5.144-33.784c-.052.073-.098.151-.145.228a4.605 4.605 0 00-.264.486c-.041.092-.08.176-.116.266a4.6 4.6 0 00-.17.55c-.021.085-.048.168-.064.255-.056.28-.084.565-.087.85v38.5a2.75 2.75 0 01-2.75 2.75 2.727 2.727 0 01-.894-.168v-6.377c.57-.6.839-1.424.733-2.245a2.8 2.8 0 000-4.419 2.797 2.797 0 00-3.117-3.126 2.792 2.792 0 00-4.414 0 2.797 2.797 0 00-3.117 3.126 2.8 2.8 0 000 4.419 2.76 2.76 0 00.753 2.272v1.018h-23.86v-35.75a2.75 2.75 0 012.75-2.75H74.75c-.025.036-.045.077-.07.115zm6.488 3.552h-5.5v-.917a2.75 2.75 0 015.5 0v.917z" fill="#2D3F84"/><path d="M59 33h3.667v1.833H59V33zm-10 0h7.333v1.833H49V33zm-2 5h18.333v1.833H47V38zm-5 6h4.583v1.833H42V44zm0 4h10.083v1.833H42V48zm6-4h21.083v1.833H48V44zm6 4h15.583v1.833H54V48zm-12 5h18.333v1.833H42V53zm0 5h15.583v1.833H42V58z" fill="#2D3F84"/><defs><filter id="filter0_dd" x="0" y="0" width="108" height="108" filterUnits="userSpaceOnUse" color-interpolation-filters="sRGB"><feFlood flood-opacity="0" result="BackgroundImageFix"/><feColorMatrix in="SourceAlpha" values="0 0 0 0 0 0 0 0 0 0 0 0 0 0 0 0 0 0 127 0"/><feOffset dy="4"/><feGaussianBlur stdDeviation="3"/><feColorMatrix values="0 0 0 0 0 0 0 0 0 0 0 0 0 0 0 0 0 0 0.25 0"/><feBlend in2="BackgroundImageFix" result="effect1_dropShadow"/><feColorMatrix in="SourceAlpha" values="0 0 0 0 0 0 0 0 0 0 0 0 0 0 0 0 0 0 127 0"/><feOffset dx="-4"/><feGaussianBlur stdDeviation="3"/><feColorMatrix values="0 0 0 0 0 0 0 0 0 0 0 0 0 0 0 0 0 0 0.25 0"/><feBlend in2="effect1_dropShadow" result="effect2_dropShadow"/><feBlend in="SourceGraphic" in2="effect2_dropShadow" result="shape"/></filter></defs></svg>