<svg width="108" height="108" fill="none" xmlns="http://www.w3.org/2000/svg"><g filter="url(#filter0_dd)"><path d="M102 52c0 25.405-20.595 46-46 46S10 77.405 10 52 30.595 6 56 6s46 20.595 46 46z" fill="#fff"/><path d="M101 52c0 24.853-20.147 45-45 45S11 76.853 11 52 31.147 7 56 7s45 20.147 45 45z" stroke="#E27418" stroke-width="2"/></g><path d="M80.702 38.156H50.624v-1.718a3.437 3.437 0 00-6.875 0v1.718h-.86a2.578 2.578 0 000 5.157h3.438a.86.86 0 01.86.859v.86h-3.438a2.586 2.586 0 00-2.063 1.03l-4.383 5.844h-3.007a2.578 2.578 0 00-2.578 2.578v4.455a2.572 2.572 0 00.859 4.998h4.297a5.156 5.156 0 1010.312 0H69.53a5.156 5.156 0 1010.313 0h.859a2.578 2.578 0 002.578-2.578V40.734a2.578 2.578 0 00-2.578-2.578zM64.374 58.781v-1.718H81.56v1.718H64.374zm-15.469-1.718h3.438v1.718h-3.438v-1.718zm5.156 0h8.594v1.718h-8.594v-1.718zm8.594-1.72h-8.594V45.032h8.594v10.313zM45.468 36.438a1.719 1.719 0 013.437 0v1.72h-3.437v-1.72zm.859 5.157h-3.438a.86.86 0 010-1.719h37.813a.859.859 0 01.86.86v14.609H64.373V44.172a.86.86 0 00-.86-.86h-10.31a.86.86 0 00-.86.86v11.172h-3.437V44.172a2.578 2.578 0 00-2.578-2.578zm-3.266 5.5a.863.863 0 01.688-.344h3.437v5.156h-7.734l3.61-4.812zm-5.328 6.531h9.453v5.156h-13.75v-1.718h.86a2.578 2.578 0 002.578-2.579v-.859h.86zm-3.437 0h.86v.86a.859.859 0 01-.86.859h-.86v-.86a.86.86 0 01.86-.859zm-1.719 8.594a.86.86 0 010-1.719h5.62a5.14 5.14 0 00-1.022 1.719h-4.598zm9.453 5.156a3.438 3.438 0 110-6.875 3.438 3.438 0 010 6.875zm4.856-5.156a5.163 5.163 0 00-1.023-1.719h24.99c-.45.5-.796 1.085-1.022 1.719H46.886zm27.8 5.156a3.438 3.438 0 110-6.875 3.438 3.438 0 010 6.875zm6.016-5.156h-1.16a5.164 5.164 0 00-1.023-1.719h3.042v.86a.859.859 0 01-.859.859z" fill="#2D3F84"/><path d="M68.86 50.594h2.578v2.578a.859.859 0 00.859.86h3.437a.859.859 0 00.86-.86v-2.578h2.578a.859.859 0 00.86-.86v-3.437a.86.86 0 00-.86-.86h-2.578V42.86a.86.86 0 00-.86-.859h-3.437a.86.86 0 00-.86.86v2.578H68.86a.86.86 0 00-.859.859v3.437a.859.859 0 00.86.86zm.859-3.438h2.578a.859.859 0 00.86-.86V43.72h1.718v2.578a.859.859 0 00.86.86h2.578v1.718h-2.579a.86.86 0 00-.859.86v2.578h-1.719v-2.579a.86.86 0 00-.86-.859H69.72v-1.719zm-28 19.282a1.719 1.719 0 100-3.438 1.719 1.719 0 000 3.438zm33 0a1.719 1.719 0 100-3.438 1.719 1.719 0 000 3.438zM42 55h3.438v1.719H42V55zm14.86-3.844h3.437a.859.859 0 00.86-.86V46.86a.86.86 0 00-.86-.859h-3.438a.86.86 0 00-.859.86v3.437a.859.859 0 00.86.86zm.859-3.437h1.718v1.718H57.72V47.72z" fill="#2D3F84"/><defs><filter id="filter0_dd" x="0" y="0" width="108" height="108" filterUnits="userSpaceOnUse" color-interpolation-filters="sRGB"><feFlood flood-opacity="0" result="BackgroundImageFix"/><feColorMatrix in="SourceAlpha" values="0 0 0 0 0 0 0 0 0 0 0 0 0 0 0 0 0 0 127 0"/><feOffset dy="4"/><feGaussianBlur stdDeviation="3"/><feColorMatrix values="0 0 0 0 0 0 0 0 0 0 0 0 0 0 0 0 0 0 0.25 0"/><feBlend in2="BackgroundImageFix" result="effect1_dropShadow"/><feColorMatrix in="SourceAlpha" values="0 0 0 0 0 0 0 0 0 0 0 0 0 0 0 0 0 0 127 0"/><feOffset dx="-4"/><feGaussianBlur stdDeviation="3"/><feColorMatrix values="0 0 0 0 0 0 0 0 0 0 0 0 0 0 0 0 0 0 0.25 0"/><feBlend in2="effect1_dropShadow" result="effect2_dropShadow"/><feBlend in="SourceGraphic" in2="effect2_dropShadow" result="shape"/></filter></defs></svg>