<svg width="108" height="108" fill="none" xmlns="http://www.w3.org/2000/svg"><g filter="url(#filter0_dd)"><path d="M102 52c0 25.405-20.595 46-46 46S10 77.405 10 52 30.595 6 56 6s46 20.595 46 46z" fill="#fff"/><path d="M101 52c0 24.853-20.147 45-45 45S11 76.853 11 52 31.147 7 56 7s45 20.147 45 45z" stroke="#E27418" stroke-width="2"/></g><g clip-path="url(#clip0)" fill="#2D3F84"><path d="M72.719 36.454a2.75 2.75 0 00-5.264 0 2.75 2.75 0 00.799 5.382h3.666a2.75 2.75 0 00.799-5.382zm-.799 3.549h-3.649a.917.917 0 11-.017-1.833c.506 0 .916-.41.916-.916v-.011a.917.917 0 011.834.01c0 .506.41.916.916.916a.917.917 0 010 1.834zm-2.128-5.92a2.292 2.292 0 100-4.583 2.292 2.292 0 000 4.583zm0-2.75a.458.458 0 110 .917.458.458 0 010-.917zm-2.709 2.459a2.292 2.292 0 10-4.583 0 2.292 2.292 0 004.583 0zm-2.291.458a.458.458 0 110-.917.458.458 0 010 .917zm12.291-.458a2.292 2.292 0 10-4.583 0 2.292 2.292 0 004.583 0zm-2.291.458a.458.458 0 110-.917.458.458 0 010 .917zM60.25 60.5a2.75 2.75 0 100 5.5 2.75 2.75 0 000-5.5zm0 3.667a.917.917 0 110-1.834.917.917 0 010 1.834z"/><path d="M81.088 35.5c0-6.076-4.926-11-11-11-6.076 0-11 4.925-11 11a11 11 0 002.627 7.134l.107 6.616H51.754v-5.5a.917.917 0 00-.917-.917h-5.12l-2.481-2.482a.917.917 0 00-1.353.062l-.645.775-1.72-1.597a.917.917 0 00-.047-1.294l-2.688-2.495a.917.917 0 00-1.296.048l-3.742 4.03a.917.917 0 00.048 1.296l2.687 2.495a.917.917 0 001.296-.048l1.935 1.797-.412.493a.919.919 0 00.056 1.236l3.667 3.666a.917.917 0 00.649.268h1.833v1.834c0 .456.336.843.787.907l1.432.205a3.658 3.658 0 00-.386 1.637V58.2l-1.736 3.473A.917.917 0 0044.42 63v1.833h1.833V63h1.833v1.833h1.834V63h1.833v1.833h1.833V63a.917.917 0 00.82-1.327L52.671 58.2v-2.534c0-.309-.04-.617-.117-.916h1.95a2.753 2.753 0 012.75 2.75v1.405a5.489 5.489 0 00-.428 7.762H43.504a.917.917 0 00-.917.916v3.667c0 .506.41.917.917.917h13.75V74H41.226a.917.917 0 00-.731.363l-1.389 1.834a.916.916 0 00-.185.553v1.833c0 .507.41.917.916.917h25.667c.506 0 .917-.41.917-.917V76.75a.917.917 0 00-.269-.648l-1.564-1.565v-7.442a5.49 5.49 0 000-8.19V52c0-.547-.163-1.08-.469-1.533l6.075-3.308c6.223-.828 10.894-5.81 10.894-11.66zm-46.032 6.203l-1.344-1.247 2.495-2.688 1.344 1.248-.197.212-2.298 2.475zm1.967.576l1.248-1.344 1.79 1.663-1.175 1.411-1.863-1.73zm5.027 6.97l-2.806-2.806 3.405-4.085 2.04 2.04a.917.917 0 00.648.268h4.584v4.584h-7.87zm3.854 11.917l.916-1.833h4.367l.917 1.834h-6.2zM47.17 57.5v-1.834c-.001-.512.214-1 .592-1.347l2.811.402c.173.286.264.612.263.946V57.5H47.17zm7.333-4.584h-3.601l-3.261-.466a.335.335 0 00-.018-.002l-2.287-.327v-1.038h16.5c.506 0 .916.41.917.917v5.815a5.488 5.488 0 00-3.667 0V57.5a4.588 4.588 0 00-4.583-4.584zM44.421 70.334V68.5h12.833v1.833H44.421zm20.167 7.334H40.754v-.609l.927-1.225h21.61l1.297 1.297v.537zM59.088 74v-5.815a5.49 5.49 0 003.666 0V74h-3.667zm5.5-11a3.667 3.667 0 11-7.334 0 3.667 3.667 0 017.334 0zm4.88-17.534l-5.822 3.17-.103-6.369a.917.917 0 00-.238-.602 9.167 9.167 0 1115.95-6.165c0 4.977-4.066 9.216-9.457 9.861a.913.913 0 00-.33.105z"/></g><defs><clipPath id="clip0"><path fill="#fff" transform="translate(28.5 24.5)" d="M0 0h55v55H0z"/></clipPath><filter id="filter0_dd" x="0" y="0" width="108" height="108" filterUnits="userSpaceOnUse" color-interpolation-filters="sRGB"><feFlood flood-opacity="0" result="BackgroundImageFix"/><feColorMatrix in="SourceAlpha" values="0 0 0 0 0 0 0 0 0 0 0 0 0 0 0 0 0 0 127 0"/><feOffset dy="4"/><feGaussianBlur stdDeviation="3"/><feColorMatrix values="0 0 0 0 0 0 0 0 0 0 0 0 0 0 0 0 0 0 0.25 0"/><feBlend in2="BackgroundImageFix" result="effect1_dropShadow"/><feColorMatrix in="SourceAlpha" values="0 0 0 0 0 0 0 0 0 0 0 0 0 0 0 0 0 0 127 0"/><feOffset dx="-4"/><feGaussianBlur stdDeviation="3"/><feColorMatrix values="0 0 0 0 0 0 0 0 0 0 0 0 0 0 0 0 0 0 0.25 0"/><feBlend in2="effect1_dropShadow" result="effect2_dropShadow"/><feBlend in="SourceGraphic" in2="effect2_dropShadow" result="shape"/></filter></defs></svg>