<svg width="55" height="55" fill="none" xmlns="http://www.w3.org/2000/svg"><path d="M23.594 19.568c0 .506.41.917.917.917h7.333c.506 0 .916-.41.916-.917v-2.75h2.75c.506 0 .917-.41.917-.916V8.569a.917.917 0 00-.917-.917h-2.75v-2.75a.917.917 0 00-.916-.917H24.51a.917.917 0 00-.917.917v2.75h-2.75a.917.917 0 00-.917.917v7.333c0 .506.411.916.917.916h2.75v2.75zm-1.833-4.583v-5.5h2.75c.506 0 .916-.41.916-.916v-2.75h5.5v2.75c0 .506.41.916.917.916h2.75v5.5h-2.75a.917.917 0 00-.917.917v2.75h-5.5v-2.75a.917.917 0 00-.916-.917h-2.75z" fill="#2D3F84"/><path d="M27.819 10.72c.506 0 .916-.41.916-.916v-.916a.917.917 0 00-1.833 0v.916c0 .506.41.917.917.917zm-2.989 1.994c.506 0 .916-.41.916-.917v-.917a.917.917 0 00-1.833 0v.917c0 .506.41.917.917.917zm5.978 0c.506 0 .916-.41.916-.917v-.917a.917.917 0 00-1.833 0v.917c0 .506.41.917.917.917zm-3.986 1.992h1.834a.917.917 0 000-1.833.917.917 0 00-1.834 0 .917.917 0 000 1.833zm-6.895 22.16h1.834v1.833h-1.834v-1.833zm0-3.986h1.834v1.834h-1.834V32.88zm0-2.989h1.834v1.834h-1.834V29.89zm0-3.985h1.834v1.833h-1.834v-1.833zm2.99 10.96h1.833v1.833h-1.833v-1.833zm0-3.986h1.833v1.834h-1.833V32.88zm0-2.989h1.833v1.834h-1.833V29.89zM7.971 36.866h1.833v1.833H7.971v-1.833zm0-3.986h1.833v1.834H7.971V32.88zm0-2.989h1.833v1.834H7.971V29.89zm3.986 6.975h1.833v1.833h-1.833v-1.833zm0-3.986h1.833v1.834h-1.833V32.88zm0-2.989h1.833v1.834h-1.833V29.89zm10.96-3.985h1.833v1.833h-1.833v-1.833zm3.985 10.96h1.833v1.833h-1.833v-1.833zm0-3.986h1.833v1.834h-1.833V32.88zm0-2.989h1.833v1.834h-1.833V29.89zm0-3.985h1.833v1.833h-1.833v-1.833zm3.986 10.96h1.833v1.833h-1.833v-1.833zm0-3.986h1.833v1.834h-1.833V32.88zm0-2.989h1.833v1.834h-1.833V29.89zm0-3.985h1.833v1.833h-1.833v-1.833zm2.989 10.96h1.833v1.833h-1.833v-1.833zm0-3.986h1.833v1.834h-1.833V32.88zm0-2.989h1.833v1.834h-1.833V29.89zm0-3.985h1.833v1.833h-1.833v-1.833zm11.956 10.96h1.834v1.833h-1.834v-1.833zm0-3.986h1.834v1.834h-1.834V32.88zm0-2.989h1.834v1.834h-1.834V29.89zm-3.985 6.975h1.833v1.833h-1.833v-1.833zm0-3.986h1.833v1.834h-1.833V32.88zm0-2.989h1.833v1.834h-1.833V29.89z" fill="#2D3F84"/><path d="M50.574 40.45V27.501a.917.917 0 00-.564-.846l-10.436-4.348v-5.805a.916.916 0 00-.597-.858C41.034 9.392 37.634 2.656 31.382.6 25.131-1.457 18.396 1.944 16.34 8.195a11.915 11.915 0 000 7.448.916.916 0 00-.597.859v3.867L5.437 22.945a.917.917 0 00-.694.89V40.45A3.673 3.673 0 001.993 44v4.584a3.673 3.673 0 002.75 3.55V55h45.83v-2.866a3.673 3.673 0 002.75-3.55V44a3.673 3.673 0 00-2.75-3.55zm-6.417 10.883a1.835 1.835 0 01-1.833-1.833v-2.75a1.833 1.833 0 113.667 0v2.75a1.835 1.835 0 01-1.834 1.833zM17.575 44v-1.833h20.166V44H17.575zm-1.833 9.167h-3.666v-.116a3.673 3.673 0 002.75-3.55v-2.75a3.664 3.664 0 00-5.523-3.16 3.639 3.639 0 00-.47-1.424h6.91v11zm-9.166-24.75h9.166v11.917H6.576V28.418zm2.75 20.166V46.75a1.833 1.833 0 113.666 0v2.75a1.833 1.833 0 11-3.666 0v-.916zm28.415-2.75v7.334h-1.833v-7.333h1.833zm1.833-17.415h9.166v11.916h-9.166V28.418zm5.5-1.833h-5.5v-2.292l5.5 2.292zM27.658 1.835c5.569 0 10.083 4.515 10.083 10.084C37.741 17.487 33.227 22 27.658 22c-5.568 0-10.083-4.514-10.083-10.082.007-5.566 4.517-10.077 10.083-10.083zm0 22a11.918 11.918 0 0010.083-5.573v22.072H17.575V18.262a11.918 11.918 0 0010.083 5.573zm-11.916-1.576v4.326H6.576V24.55l9.166-2.291zM3.826 48.584V44a1.833 1.833 0 113.666 0v4.584a1.833 1.833 0 11-3.666 0zm2.75 3.55a3.657 3.657 0 001.441-.746 3.681 3.681 0 002.225 1.663v.116H6.576v-1.033zm11-6.3h1.833v7.333h-1.834v-7.333zm3.666 0h5.5v7.333h-5.5v-7.333zm7.333 7.333v-7.333h5.5v7.333h-5.5zm11-8.25v-2.75h6.909a3.64 3.64 0 00-.47 1.424 3.664 3.664 0 00-5.523 3.16v2.75a3.673 3.673 0 002.75 3.55v.116h-3.667v-8.25zm5.499 8.25v-.116a3.681 3.681 0 002.225-1.663 3.66 3.66 0 001.441.746v1.033h-3.666zm6.416-4.584a1.833 1.833 0 11-3.666 0V44a1.833 1.833 0 113.666 0v4.584z" fill="#2D3F84"/><path d="M30.888 47.826h1.833v1.833h-1.833v-1.833zm-7.971 0h1.833v1.833h-1.833v-1.833z" fill="#2D3F84"/></svg>