<svg width="108" height="108" fill="none" xmlns="http://www.w3.org/2000/svg"><g filter="url(#filter0_dd)"><circle cx="56" cy="52" r="46" fill="#fff"/><circle cx="56" cy="52" r="45" stroke="#E27418" stroke-width="2"/></g><path d="M76.785 69.468c.445 0 .805-.36.805-.806V28.633a1.939 1.939 0 00-1.936-1.936h-7.658A1.938 1.938 0 0066.076 25h-3.58a.806.806 0 100 1.611h3.58c.18 0 .325.146.325.326v4.793c0 .18-.146.326-.325.326H49.42a.326.326 0 01-.326-.326v-4.793c0-.18.146-.326.326-.326h9.215a.806.806 0 100-1.611H49.42c-.987 0-1.802.742-1.92 1.697h-7.658a1.939 1.939 0 00-1.937 1.936v28.949a1.938 1.938 0 00-1.832 1.931v2.366c0 1.774.698 3.388 1.832 4.584v11.6A1.94 1.94 0 0039.842 80h35.81a1.939 1.939 0 001.938-1.937v-5.542a.806.806 0 00-1.612 0v5.542c0 .18-.146.326-.325.326h-35.81a.326.326 0 01-.326-.326V67.714a6.63 6.63 0 003.228.836H67.11a.81.81 0 00.086-.005 6.63 6.63 0 004.55-1.997 6.634 6.634 0 001.906-4.67V31.99a1.94 1.94 0 00-1.936-1.937h-3.702v-1.745h7.64c.18 0 .326.146.326.325v40.03c0 .444.36.805.806.805zm-34.04-2.53a5.065 5.065 0 01-5.06-5.06v-2.365c0-.179.146-.325.326-.325h22.101c.18 0 .325.146.325.325v2.366a6.66 6.66 0 002.329 5.06h-20.02zm28.97-35.273c.179 0 .325.146.325.325v29.89c0 2.73-2.22 5-4.949 5.059h-.007a5.067 5.067 0 01-4.627-3.07h2.45a.806.806 0 000-1.61h-2.843a5.108 5.108 0 01-.015-.38v-.907h2.858a.806.806 0 000-1.611H62.04a1.938 1.938 0 00-1.929-1.783H43.533v-5.38a.806.806 0 00-1.611 0v5.38h-2.405V28.633c0-.18.146-.325.326-.325h7.64v1.745H43.86a1.939 1.939 0 00-1.937 1.937v16.347a.806.806 0 001.611 0V31.99c0-.18.146-.325.326-.325h3.625v.065a1.94 1.94 0 001.937 1.937h16.655a1.939 1.939 0 001.937-1.937v-.065h3.701z" fill="#2D3F84"/><path d="M54.921 44.98a1.802 1.802 0 01-.603 1.154 3.128 3.128 0 00-1.054 2.613 3.162 3.162 0 003.141 2.894c.392 0 .774-.072 1.139-.213a1.8 1.8 0 011.312 0 3.13 3.13 0 001.36.205 3.166 3.166 0 002.916-2.852 3.135 3.135 0 00-1.263-2.82 1.767 1.767 0 01-.71-1.136 3.157 3.157 0 00-1.06-1.89 3.16 3.16 0 00-4.112.013 3.141 3.141 0 00-1.066 2.032zm2.124-.817a1.53 1.53 0 011.006-.374c.356 0 .713.122.998.367.281.242.46.561.519.923a3.368 3.368 0 001.342 2.177c.435.323.666.839.617 1.381a1.542 1.542 0 01-2.087 1.289 3.413 3.413 0 00-2.48 0 1.54 1.54 0 01-2.088-1.306 1.53 1.53 0 01.513-1.279 3.41 3.41 0 001.138-2.185c.042-.384.227-.737.522-.993zm-2.323-2.079a2.481 2.481 0 002.478-2.479 2.481 2.481 0 00-2.478-2.478 2.481 2.481 0 00-2.478 2.478 2.481 2.481 0 002.478 2.479zm0-3.346a.868.868 0 010 1.734.868.868 0 010-1.734zm6.063 3.346a2.481 2.481 0 002.479-2.479 2.481 2.481 0 00-2.479-2.478 2.481 2.481 0 00-2.478 2.478 2.481 2.481 0 002.478 2.479zm0-3.346a.868.868 0 010 1.734.868.868 0 010-1.734zM50.68 46.126a2.481 2.481 0 002.478-2.478 2.481 2.481 0 00-2.479-2.479 2.481 2.481 0 00-2.478 2.479 2.481 2.481 0 002.478 2.478zm0-3.345a.868.868 0 010 1.733.868.868 0 010-1.733zm11.67.867a2.481 2.481 0 002.478 2.478 2.481 2.481 0 002.478-2.478 2.481 2.481 0 00-2.478-2.479 2.481 2.481 0 00-2.479 2.479zm2.478-.867a.868.868 0 010 1.734.868.868 0 010-1.734zm2.575-6.869c0 .445.36.805.805.805h1.72a.806.806 0 000-1.611h-1.72a.806.806 0 00-.805.806zm-16.371-6.87h-.004a.806.806 0 00-.004 1.612h.016a.806.806 0 00.004-1.612h-.012zm13.142 1.612h.004a.806.806 0 00.003-1.612h-.015a.806.806 0 00-.004 1.612h.012zm5.36 23.653H46.986a.806.806 0 000 1.611h22.548a.806.806 0 000-1.61zM42.943 74.519a.806.806 0 000 1.611h1.694a.806.806 0 000-1.611h-1.694zm8.265-1.216a.806.806 0 00-.806-.805h-7.459a.806.806 0 100 1.611h7.459c.445 0 .806-.36.806-.805z" fill="#2D3F84"/><defs><filter id="filter0_dd" x="0" y="0" width="108" height="108" filterUnits="userSpaceOnUse" color-interpolation-filters="sRGB"><feFlood flood-opacity="0" result="BackgroundImageFix"/><feColorMatrix in="SourceAlpha" values="0 0 0 0 0 0 0 0 0 0 0 0 0 0 0 0 0 0 127 0"/><feOffset dy="4"/><feGaussianBlur stdDeviation="3"/><feColorMatrix values="0 0 0 0 0 0 0 0 0 0 0 0 0 0 0 0 0 0 0.25 0"/><feBlend in2="BackgroundImageFix" result="effect1_dropShadow"/><feColorMatrix in="SourceAlpha" values="0 0 0 0 0 0 0 0 0 0 0 0 0 0 0 0 0 0 127 0"/><feOffset dx="-4"/><feGaussianBlur stdDeviation="3"/><feColorMatrix values="0 0 0 0 0 0 0 0 0 0 0 0 0 0 0 0 0 0 0.25 0"/><feBlend in2="effect1_dropShadow" result="effect2_dropShadow"/><feBlend in="SourceGraphic" in2="effect2_dropShadow" result="shape"/></filter></defs></svg>