<svg width="32" height="32" fill="none" xmlns="http://www.w3.org/2000/svg"><path d="M17.564 24.82v.5h.5v-.5h-.5zm0-8.161v-.5h-.5v.5h.5zm-3.377 8.16h-.5v.5h.5v-.5zm0-8.16h.5v-.5h-.5v.5zm-1.687 0H12v.5h.5v-.5zm0-2.812v-.5H12v.5h.5zm1.687 0v.5h.5v-.5h-.5zM20.099 8.5h.5V8h-.5v.5zm0 2.813v.5h.5v-.5h-.5zm-2.532 1.126l.5.001h-.5zm-.003 1.408l-.5-.002-.002.502h.502v-.5zm2.55 0l.498.052.059-.552h-.556v.5zm-.298 2.812v.5h.45l.047-.447-.497-.053zM1.5 16C1.5 7.992 7.992 1.5 16 1.5v-1C7.44.5.5 7.44.5 16h1zM16 30.5C7.992 30.5 1.5 24.008 1.5 16h-1c0 8.56 6.94 15.5 15.5 15.5v-1zM30.5 16c0 8.008-6.492 14.5-14.5 14.5v1c8.56 0 15.5-6.94 15.5-15.5h-1zM16 1.5c8.008 0 14.5 6.492 14.5 14.5h1C31.5 7.44 24.56.5 16 .5v1zm2.064 23.32v-8.161h-1v8.16h1zm-3.877.5h3.377v-1h-3.377v1zm-.5-8.66v8.16h1v-8.16h-1zm-1.187.5h1.687v-1H12.5v1zm-.5-3.313v2.812h1v-2.812h-1zm2.187-.5H12.5v1h1.687v-1zm-.5-1.188v1.688h1v-1.688h-1zM17.846 8c-1.431 0-2.507.361-3.213 1.13-.698.762-.946 1.825-.946 3.028h1c0-1.09.229-1.856.683-2.35.446-.487 1.2-.808 2.476-.808V8zm2.253 0h-2.253v1h2.253V8zm.5 3.313V8.5h-1v2.813h1zm-1.909.5h1.41v-1h-1.41v1zm-.623.626c0-.182.005-.308.021-.404.015-.092.035-.12.04-.126a.062.062 0 01.016-.014.315.315 0 01.076-.032 1.65 1.65 0 01.47-.05v-1c-.552 0-1.048.095-1.35.479a1.25 1.25 0 00-.239.58c-.03.184-.034.383-.034.567h1zm-.003 1.409l.003-1.408-1-.002-.003 1.407 1 .003zm2.05-.501h-2.55v1h2.55v-1zm.2 3.365l.298-2.813-.994-.105-.299 2.812.994.106zm-2.75.447h2.252v-1h-2.252v1z" fill="#fff"/></svg>