<svg width="16" height="16" fill="none" xmlns="http://www.w3.org/2000/svg"><path d="M14.594 2.375H1.406C.63 2.375 0 3.008 0 3.781v8.438c0 .777.634 1.406 1.406 1.406h13.188c.77 0 1.406-.626 1.406-1.406V3.78c0-.771-.627-1.406-1.406-1.406zm-.197.938L8.994 8.686A1.397 1.397 0 018 9.098c-.376 0-.729-.146-.995-.412L1.603 3.313h12.794zM.937 12.027V3.973l4.052 4.03-4.051 4.025zm.667.66l4.05-4.024.689.685A2.328 2.328 0 008 10.036c.626 0 1.215-.244 1.656-.686l.69-.686 4.05 4.024H1.604zm13.458-.66l-4.05-4.026 4.05-4.03v8.056z" fill="#fff"/></svg>