<svg width="16" height="16" fill="none" xmlns="http://www.w3.org/2000/svg"><path d="M8 0a5.631 5.631 0 00-5.625 5.625c0 1.048.29 2.07.84 2.958l4.465 7.195a.469.469 0 00.398.222h.004a.469.469 0 00.398-.228l4.352-7.265a5.62 5.62 0 00.793-2.882A5.631 5.631 0 008 0zm4.027 8.026L8.071 14.63l-4.06-6.542a4.682 4.682 0 01-.705-2.464A4.704 4.704 0 018 .931a4.7 4.7 0 014.69 4.694c0 .848-.231 1.678-.663 2.4z" fill="#fff"/><path d="M8 2.813a2.816 2.816 0 00-2.813 2.812A2.809 2.809 0 008 8.438a2.807 2.807 0 002.813-2.813A2.816 2.816 0 008 2.812zm0 4.693a1.883 1.883 0 01-1.881-1.881c0-1.034.847-1.881 1.881-1.881s1.878.847 1.878 1.881A1.88 1.88 0 018 7.506z" fill="#fff"/></svg>