<svg width="16" height="16" fill="none" xmlns="http://www.w3.org/2000/svg"><path d="M1.734.717a2.433 2.433 0 00-.138.175C.84 1.895-.064 3.437.004 4.925c.115 2.491 3.477 5.803 4.505 6.759 1.029.955 4.577 4.067 7.068 4a4.2 4.2 0 001.308-.26c1.044-.374 1.986-1.086 2.585-1.61 0 0 .129-.11.178-.163.126-.135.225-.332.303-.603a1.42 1.42 0 00.049-.381c0-.109-.01-.32-.082-.511-.098-.262-.21-.45-.345-.576a243.787 243.787 0 00-2.36-1.862l-.016-.01a1.506 1.506 0 00-1.434-.233 1.43 1.43 0 00-.565.37l-.772.826a.747.747 0 01-.255.17.683.683 0 01-.107.012l-5.18-4.814a.092.092 0 01-.022-.032l.007-.018c.019-.039.108-.161.22-.283l.764-.826c.404-.435.504-1.11.247-1.638-.091-.188-.217-.328-.275-.394l-.03-.038A279.18 279.18 0 003.805.64C3.593.445 3.262.34 2.791.317c-.261-.013-.59.064-.78.183a1.382 1.382 0 00-.278.217zm1.426.598c.106.107 1.827 1.992 1.917 2.091l.064.077a.815.815 0 01.122.169.545.545 0 01-.094.595l-.764.828c-.09.097-.307.344-.394.55a.986.986 0 00-.084.395c.01.266.122.513.32.7l5.232 4.862c.2.185.489.244.861.175.288-.053.6-.27.767-.45l.773-.827c.052-.056.12-.1.197-.128a.58.58 0 01.402.006.636.636 0 01.155.093c.02.015.035.025.05.034.215.167 2.146 1.685 2.25 1.773 0 0 .047.052.11.224a.64.64 0 01.024.185.482.482 0 01-.012.121c-.048.166-.088.225-.088.226-.03.03-.093.082-.104.091-.546.478-1.387 1.117-2.294 1.441a3.27 3.27 0 01-1.017.206c-1.702.046-4.516-1.992-6.41-3.751C3.252 9.242 1.014 6.584.936 4.88c-.058-1.226.74-2.546 1.397-3.418l.025-.034c.015-.02.041-.057.055-.073.023-.022.058-.043.086-.06a.674.674 0 01.25-.048c.275.014.402.063.412.067z" fill="#fff"/></svg>