<svg width="36" height="37" fill="none" xmlns="http://www.w3.org/2000/svg"><path d="M35.6 18.633c0-9.775-7.88-17.7-17.6-17.7C8.28.933.4 8.858.4 18.633c0 9.776 7.88 17.7 17.6 17.7 9.715-.011 17.589-7.929 17.6-17.7zm-33.244 0C2.356 9.944 9.36 2.9 18 2.9s15.645 7.044 15.645 15.733c0 8.69-7.005 15.734-15.645 15.734-8.636-.01-15.634-7.049-15.644-15.734z" fill="#1B2651"/><path d="M19.698 29.873c.76.349 1.583.54 2.418.56a3.432 3.432 0 003.325-1.986 5.562 5.562 0 00-.928-5.53 12.662 12.662 0 01-1.207-1.924c-1.068-1.925-2.397-4.326-5.306-4.326-2.909 0-4.238 2.401-5.306 4.326a12.659 12.659 0 01-1.204 1.92 5.562 5.562 0 00-.928 5.53 3.432 3.432 0 003.322 1.99 6.157 6.157 0 002.418-.56A4.363 4.363 0 0118 29.45a4.362 4.362 0 011.698.423zm-4.116-1.83a4.363 4.363 0 01-1.698.424 1.523 1.523 0 01-1.55-.849 3.59 3.59 0 01.651-3.435 14.265 14.265 0 001.418-2.23c1.144-2.065 1.955-3.32 3.597-3.32s2.453 1.255 3.597 3.32a14.28 14.28 0 001.418 2.23 3.59 3.59 0 01.65 3.435 1.523 1.523 0 01-1.549.849 4.362 4.362 0 01-1.698-.423 6.159 6.159 0 00-2.418-.56 6.158 6.158 0 00-2.418.56zm-2.177-11.427c.18 0 .36-.015.538-.046 2.124-.37 3.48-2.845 3.019-5.515-.46-2.67-2.56-4.546-4.689-4.174a3.609 3.609 0 00-2.548 2.017 5.663 5.663 0 00-.467 3.503c.42 2.44 2.217 4.215 4.147 4.215zm-1.938-6.833c.212-.482.634-.84 1.143-.968.072-.013.144-.019.216-.019.977 0 1.955 1.123 2.212 2.59.271 1.574-.382 3.06-1.425 3.245-1.043.185-2.156-.996-2.43-2.571a3.738 3.738 0 01.284-2.277zM6.214 22.91a3.31 3.31 0 001.817.563c.308 0 .615-.047.91-.14a3.725 3.725 0 002.109-4.776 3.697 3.697 0 00-4.43-2.735A3.725 3.725 0 004.513 20.6a4.236 4.236 0 001.7 2.31zM7.2 17.7c.104-.033.212-.05.32-.05a1.954 1.954 0 011.662 1.489 1.804 1.804 0 01-.82 2.316 1.28 1.28 0 01-1.084-.197 2.3 2.3 0 01-.897-1.245 1.806 1.806 0 01.82-2.314zm14.89-1.132c.177.031.357.047.537.046 1.931 0 3.728-1.775 4.15-4.22a5.676 5.676 0 00-.466-3.496 3.61 3.61 0 00-2.552-2.013c-2.133-.372-4.229 1.503-4.688 4.175a5.664 5.664 0 00.467 3.502 3.611 3.611 0 002.551 2.006zm-1.095-5.18C21.248 9.923 22.23 8.8 23.208 8.8c.072 0 .144.006.216.019.509.129.93.486 1.144.968.329.71.427 1.505.281 2.274-.27 1.573-1.376 2.753-2.427 2.571a1.705 1.705 0 01-1.143-.97 3.726 3.726 0 01-.284-2.272v-.002zm3.955 7.168a3.725 3.725 0 002.11 4.777c.294.092.6.14.91.14a3.317 3.317 0 001.816-.563 4.236 4.236 0 001.701-2.31 3.725 3.725 0 00-2.107-4.777 3.697 3.697 0 00-4.43 2.733zm1.869.584c.314-1.019 1.229-1.678 1.98-1.44a1.806 1.806 0 01.82 2.315 2.3 2.3 0 01-.896 1.245 1.279 1.279 0 01-1.084.196 1.804 1.804 0 01-.82-2.316z" fill="#2D3F84"/></svg>