<svg width="23" height="22" fill="none" xmlns="http://www.w3.org/2000/svg"><path d="M12.407 10.255l-.035-.035c-.847-.847-2.164-1.295-3.808-1.295-2.827 0-6.04 1.303-7.162 2.905-.59.841-.512 1.57-.343 2.034.405 1.116 1.207 2.037 2.382 2.737a7.36 7.36 0 011.453 1.136c.437.435.819.922 1.132 1.45.7 1.174 1.62 1.975 2.736 2.38.22.081.45.122.681.122 1.268 0 2.495-1.207 3.367-3.311 1.09-2.629 1.427-6.292-.403-8.123zm-1.15 7.48c-.612 1.476-1.391 2.273-1.814 2.273a.308.308 0 01-.107-.02c-.741-.27-1.37-.829-1.866-1.662a9.03 9.03 0 00-1.388-1.778 9.03 9.03 0 00-1.781-1.392c-.834-.496-1.393-1.124-1.662-1.866-.018-.048-.071-.195.14-.495.723-1.034 3.351-2.189 5.785-2.189 1.172 0 2.102.285 2.62.803l.034.034c1.171 1.171.94 4.119.04 6.292zM13.939.552a3.679 3.679 0 00-1.309-.24 3.713 3.713 0 00-3.453 2.384c-.336.886-.394 2.126-.15 3.235.3 1.367.986 2.318 1.932 2.676.27.103.56.155.861.155 1.742 0 3.645-1.817 4.263-3.448A3.697 3.697 0 0013.939.552zm.572 4.166c-.395 1.042-1.741 2.363-2.69 2.363a.74.74 0 01-.266-.045c-.386-.147-.717-.694-.886-1.466-.172-.783-.14-1.699.08-2.278a2.023 2.023 0 011.881-1.3 2.014 2.014 0 011.88 2.726zm-6.656-.712a3.292 3.292 0 00-3.868-2.568 3.287 3.287 0 00-2.568 3.868c.297 1.474 1.859 3.616 3.628 3.616.144 0 .288-.014.427-.043 1.876-.378 2.724-3.173 2.38-4.873zM5.14 7.232a.463.463 0 01-.094.01c-.683 0-1.775-1.251-1.98-2.269a1.604 1.604 0 011.572-1.92c.758 0 1.418.541 1.568 1.286.219 1.082-.399 2.758-1.066 2.893zm16.935 1.456a3.713 3.713 0 00-3.454-2.385c-.447 0-.887.081-1.308.241-1.823.691-4.066 3.087-3.293 5.124.582 1.537 2.562 2.082 4.08 2.082.68 0 1.313-.104 1.83-.3a3.697 3.697 0 002.145-4.762zm-2.74 3.19c-.325.124-.763.191-1.235.191-1.215 0-2.293-.428-2.509-.997-.326-.86 1.104-2.496 2.318-2.956.23-.088.47-.132.712-.132.831 0 1.588.523 1.882 1.3a2.014 2.014 0 01-1.168 2.594zm-.715 2.894a4.051 4.051 0 00-.798-.075c-1.735 0-3.753.86-4.075 2.455-.389 1.926 1.894 3.717 3.574 4.056a3.292 3.292 0 003.868-2.568 3.287 3.287 0 00-2.568-3.868zm.921 3.535a1.606 1.606 0 01-1.887 1.254c-1.083-.219-2.392-1.421-2.26-2.076.114-.558 1.316-1.107 2.428-1.107.173 0 .33.014.466.042a1.604 1.604 0 011.253 1.887z" fill="#2D3F84"/></svg>