<svg width="32" height="32" fill="none" xmlns="http://www.w3.org/2000/svg"><path d="M12.702 8.048l-.023-.5.023.5zm6.595 0l.023-.5-.023.5zm1.943.372l-.18.466.18-.466zm1.417.923l-.354.353.354-.353zm.923 1.417l.466-.18v-.002l-.466.182zm.372 1.941l.5-.022v-.001l-.5.023zm0 6.597l.5.024v-.001l-.5-.023zm-.372 1.942l.466.181-.466-.181zm-.923 1.417l-.354-.354.354.354zm-1.416.923l-.182-.466.181.466zm-1.943.372l.023.5-.023-.5zm-6.597 0l-.023.5.023-.5zm-1.942-.372l.181-.466-.18.466zm-1.416-.923l.353-.354-.353.354zM8.42 21.24l-.466.18.466-.18zm-.372-1.942l-.5.023.5-.023zm0-6.597l-.5-.022.5.022zm.372-1.942l.466.182-.466-.182zm.923-1.416l.354.353-.354-.353zm1.417-.923l.181.466-.18-.466zM1.5 16C1.5 7.992 7.992 1.5 16 1.5v-1C7.44.5.5 7.44.5 16h1zM16 30.5C7.992 30.5 1.5 24.008 1.5 16h-1c0 8.56 6.94 15.5 15.5 15.5v-1zM30.5 16c0 8.008-6.492 14.5-14.5 14.5v1c8.56 0 15.5-6.94 15.5-15.5h-1zM16 1.5c8.008 0 14.5 6.492 14.5 14.5h1C31.5 7.44 24.56.5 16 .5v1zm0 6c-2.175 0-2.456.01-3.32.049l.045.999C13.567 8.509 13.83 8.5 16 8.5v-1zm-.002 1h.003v-1h-.003v1zm3.321-.951c-.864-.04-1.145-.049-3.32-.049v1c2.17 0 2.433.01 3.275.048l.045-1zm2.102.405c-.567-.22-1.203-.364-2.101-.405l-.046.999c.804.037 1.332.162 1.785.338l.362-.932zm1.59 1.035a4.409 4.409 0 00-1.59-1.035l-.362.932c.466.18.851.417 1.244.81l.707-.707zm1.035 1.59a4.426 4.426 0 00-1.036-1.59l-.707.707c.392.392.63.779.811 1.245l.932-.363zm.405 2.099c-.042-.899-.186-1.534-.405-2.099l-.932.361c.175.453.3.98.338 1.785l1-.047zM24.5 16c0-2.175-.01-2.457-.049-3.321l-.999.045c.038.842.048 1.106.048 3.276h1zm-.049 3.32c.039-.864.049-1.144.049-3.32h-1c0 2.17-.01 2.433-.048 3.276l1 .045zm-.405 2.1c.219-.565.363-1.2.405-2.098l-.999-.047c-.038.804-.163 1.332-.338 1.785l.932.36zm-1.036 1.59a4.426 4.426 0 001.036-1.589l-.932-.363a3.428 3.428 0 01-.81 1.245l.706.707zm-1.588 1.036a4.413 4.413 0 001.588-1.036l-.707-.707a3.41 3.41 0 01-1.244.811l.363.932zm-2.101.405c.898-.04 1.535-.185 2.1-.405l-.362-.932c-.452.176-.98.302-1.784.338l.046 1zm-3.321.05c2.175 0 2.456-.01 3.32-.05l-.045-.999c-.842.039-1.105.048-3.275.048v1zm-3.321-.05c.864.04 1.146.05 3.32.05v-1c-2.17 0-2.433-.01-3.275-.049l-.045 1zm-2.1-.405c.565.22 1.2.364 2.1.405l.045-.999c-.804-.037-1.331-.162-1.784-.338l-.362.932zm-1.59-1.036a4.416 4.416 0 001.59 1.036l.361-.932a3.418 3.418 0 01-1.244-.81l-.707.706zm-1.035-1.59a4.42 4.42 0 001.035 1.59l.707-.707a3.42 3.42 0 01-.81-1.245l-.932.363zm-.405-2.1c.041.9.185 1.535.405 2.1l.932-.362c-.176-.451-.301-.978-.338-1.783l-1 .046zM7.5 16c0 2.175.01 2.456.049 3.32l.999-.045C8.51 18.433 8.5 18.17 8.5 16h-1zm.049-3.321C7.51 13.543 7.5 13.825 7.5 16h1c0-2.17.01-2.434.048-3.276l-1-.045zm.405-2.101c-.22.566-.365 1.202-.405 2.1l.999.046c.036-.804.162-1.331.338-1.783l-.932-.363zm1.036-1.59a4.426 4.426 0 00-1.036 1.59l.932.363c.182-.466.418-.853.81-1.245L8.99 8.99zm1.59-1.034a4.416 4.416 0 00-1.59 1.035l.707.707a3.418 3.418 0 011.244-.81l-.362-.932zm2.1-.405c-.9.041-1.535.185-2.1.405l.362.932c.451-.176.978-.301 1.783-.338l-.046-1zm7.591 3.221v.5h.5v-.5h-.5zm0 0v-.5h-.5v.5h.5zm-4.27 1.122v-.5.5zm4.27-1.622a1.46 1.46 0 00-1.46 1.46h1a.46.46 0 01.46-.46v-1zm-.5.5h1-1zm1.96.96a1.46 1.46 0 00-1.46-1.46v1a.46.46 0 01.46.46h1zm-1.46 1.46a1.46 1.46 0 001.46-1.46h-1a.46.46 0 01-.46.46v1zm-1.46-1.46c0 .806.654 1.46 1.46 1.46v-1a.46.46 0 01-.46-.46h-1zm-2.81-.338a4.609 4.609 0 00-4.609 4.609h1a3.609 3.609 0 013.609-3.609v-1zm4.607 4.609a4.608 4.608 0 00-4.607-4.609v1a3.608 3.608 0 013.607 3.609h1zm-4.607 4.607a4.607 4.607 0 004.607-4.607h-1a3.607 3.607 0 01-3.607 3.607v1zm-4.609-4.607a4.608 4.608 0 004.609 4.607v-1a3.608 3.608 0 01-3.609-3.607h-1z" fill="#fff"/><path d="M16 13.333a2.667 2.667 0 110 5.334 2.667 2.667 0 010-5.334z" stroke="#fff"/></svg>