<svg width="37" height="39" fill="none" xmlns="http://www.w3.org/2000/svg"><path d="M18.5.018c10.218 0 18.5 8.506 18.5 19 0 10.493-8.282 19-18.5 19-10.217 0-18.5-8.507-18.5-19 0-10.494 8.283-19 18.5-19zm0 35.625c8.926 0 16.188-7.458 16.188-16.625 0-9.168-7.262-16.662-16.188-16.662-8.926 0-16.187 7.494-16.187 16.662 0 9.167 7.26 16.625 16.187 16.625z" fill="#E79755"/><path d="M21.035 9.84a1.128 1.128 0 011.634 0 1.23 1.23 0 010 1.697L15.508 19l7.164 7.463a1.231 1.231 0 010 1.697 1.128 1.128 0 01-1.635 0l-7.978-8.311c-.44-.457-.441-1.24 0-1.697l7.977-8.312z" fill="#E79755"/></svg>