<svg width="108" height="108" fill="none" xmlns="http://www.w3.org/2000/svg"><path d="M106.2 0H1.8A1.8 1.8 0 000 1.8v104.4a1.802 1.802 0 001.8 1.8h104.4c.477 0 .935-.19 1.273-.527.337-.338.527-.796.527-1.273V1.8a1.802 1.802 0 00-1.8-1.8zM54.103 78.351l-3.176 3.176a1.8 1.8 0 00-.225 2.272L54 88.745V104.4h-.837l-3.428-5.143a17.418 17.418 0 01-2.935-9.692V85.05a19.05 19.05 0 00-2.001-8.477l-1.714-3.428-3.555-12.44a1.799 1.799 0 00-.29-.584l-4.27-5.693 4.394-1.953 6.253 4.69 7.11 7.11.003.002.041.038c.033.03.066.06.1.088l.004.004 3.785 3.026a48.86 48.86 0 00-2.352 9.483l-.205 1.435zM41.335 45h1l5.653 7.066-1.357 1.357L41.4 49.5v-3.6c0-.301-.022-.602-.065-.9zm1.52-7.848l-.337 1.35a3.818 3.818 0 01-3.07 2.844 6.285 6.285 0 00-8.752.054H12.77a3.622 3.622 0 012.923-2.48l7.963-1.139a1.8 1.8 0 001.018-.509l3.292-3.291A5.436 5.436 0 0131.78 32.4h7.364a3.82 3.82 0 013.71 4.752zM31.405 48.41a1.8 1.8 0 00.995-1.61v-.9a2.7 2.7 0 015.4 0v3.33L23.018 55.8H17.1a.9.9 0 110-1.8h2.7a1.8 1.8 0 00.805-.19l10.8-5.4zm17.94 7.39l1.055-1.054 4.654 4.654L54 60.454 49.346 55.8zm11.948 31.83a1.8 1.8 0 00-.093.57v16.2h-3.6V88.2a1.8 1.8 0 00-.302-.999l-2.782-4.171 2.03-2.03h3.909l2.286 2.286-1.448 4.345zm-1.29-10.28l-.021.05h-2.106a45.555 45.555 0 017.146-18.687 2.5 2.5 0 014.45.596l.081.241a2.489 2.489 0 01-.42 2.352l-.478.598a58.583 58.583 0 00-8.654 14.85h.001zm-3.308-14.5l1.184-1.183.97.582c-.275.559-.54 1.121-.794 1.69l-1.36-1.088zm13.01 4.226c1.66.222 3.333.402 5.006.543a19.66 19.66 0 00-.962 2.191c-.355-.043-.715-.089-1.077-.136l-4.346-.58a55.24 55.24 0 011.379-2.018zm-6.361 11.61a55.052 55.052 0 012.959-6.231l5.895.787c.207.028.412.054.617.08a19.466 19.466 0 00-.177 5.161l.524 5.239a16.286 16.286 0 01-1.2 7.965 48.671 48.671 0 01-7.162-3.058v-.136l1.707-5.123a1.8 1.8 0 00-.434-1.842l-2.76-2.761.03-.08zM104.4 104.4h-3.773l3.773-2.239v2.239zm0-6.425l-5.918 3.51a24.052 24.052 0 01-11.458 2.915H64.8V92.657a51.902 51.902 0 0022.511 5.13c1.452 0 2.907-.06 4.365-.182a19.71 19.71 0 0012.724-6.127v6.497zM76.745 83.363l-.524-5.239a15.88 15.88 0 01.182-4.414c1.662.152 3.328.268 4.984.341a19.45 19.45 0 00.28 4.751l.958 5.177c.611 3.33.175 6.769-1.25 9.84a48.24 48.24 0 01-5.943-1.113 19.875 19.875 0 001.313-9.344zm.724-13.17c.351-.807.769-1.582 1.248-2.318 1.339.06 2.685.095 4.04.104a19.533 19.533 0 00-.812 2.491 102.02 102.02 0 01-4.475-.277zm8.43 3.96c1.379 0 2.763-.03 4.143-.085.092 1.572.375 3.128.842 4.632l1.568 5.026a16.37 16.37 0 01-.155 10.185c-.305.043-.611.08-.92.105a48.835 48.835 0 01-6.226.121 19.978 19.978 0 001.014-10.812l-.958-5.176a15.871 15.871 0 01-.222-4.002c.305.003.609.006.914.006zm-.238-3.603c.28-.903.64-1.78 1.076-2.62 1.315-.041 2.637-.109 3.965-.202a19.51 19.51 0 00-.546 2.73c-1.497.064-3 .096-4.495.093zm13.51 2.753c.14.793.33 1.576.57 2.344l1.52 4.864c.905 2.89.95 5.979.129 8.892a15.89 15.89 0 01-5.047 3.385c.723-3.36.566-6.851-.455-10.134l-1.567-5.026a15.851 15.851 0 01-.686-3.764c1.846-.137 3.697-.324 5.536-.56v-.001zm-5.345-3.063c.166-.975.422-1.931.765-2.858 1.528-.165 3.053-.364 4.578-.596a18.95 18.95 0 00-.275 2.919c-1.685.22-3.378.402-5.068.535zm10.575 8.246l-1.224-3.914a15.285 15.285 0 01-.439-1.79 86.5 86.5 0 001.663-.287v5.991zm0-9.649a96.08 96.08 0 01-1.887.334 15.34 15.34 0 01.479-3.041c.472-.09.941-.183 1.408-.279v2.986zm0-11.078l-.055-.025a1.8 1.8 0 00-2.348.984l-1.706 4.166-.029.077a99.31 99.31 0 01-4.14.617l1.14-2.813a1.802 1.802 0 00-1.68-2.483 1.799 1.799 0 00-1.655 1.13l-1.867 4.6a98.72 98.72 0 01-3.295.23l1.374-2.486a1.8 1.8 0 00-3.15-1.74l-2.41 4.36c-1.175.013-2.347.006-3.519-.02l1.438-2.157a1.8 1.8 0 00-2.996-1.997l-2.643 3.964c-1.54-.102-3.083-.239-4.626-.412a6.071 6.071 0 00.734-5.342l-.08-.241a6.099 6.099 0 00-10.862-1.455 47.427 47.427 0 00-1.473 2.357l-1.836-1.103-6.974-6.973-7.08-8.85a7.42 7.42 0 001.348-2.772l.337-1.347a7.424 7.424 0 00-7.203-9.228h-7.364a8.94 8.94 0 00-6.362 2.635l-2.867 2.868-7.37 1.053a7.187 7.187 0 00-4.382 2.385V35.45a1.794 1.794 0 011.504-1.776l7.792-1.298c.37-.062.712-.238.977-.503l3.3-3.3 10.396-3.465a1.8 1.8 0 001.139-2.277l-.447-1.338a9.9 9.9 0 01.2-6.799l.681-1.703 12.525 20.353c.039.063.081.123.127.181l5.539 6.923a41.7 41.7 0 0023.76 14.685l5.53 1.185c4.078.868 8.296.834 12.36-.097l8.217-1.897.001 3.436zm0-7.13l-9.026 2.083a25.01 25.01 0 01-10.796.085l-5.53-1.185a38.091 38.091 0 01-21.704-13.414l-5.469-6.836L37.533 8.057a1.8 1.8 0 00-3.204.274l-2.01 5.025a13.504 13.504 0 00-.39 8.904l-9.098 3.032a1.805 1.805 0 00-.704.435l-3.192 3.192-7.222 1.204A5.384 5.384 0 007.2 35.45v7.75A1.8 1.8 0 009 45h19.8v.688L19.375 50.4H17.1a4.5 4.5 0 100 9h6.3c.06 0 .12-.003.18-.01l.057-.008c.04-.005.08-.01.121-.019.023-.004.045-.01.068-.016a1.797 1.797 0 00.177-.053l.066-.022 7.719-3.088 4.372 5.83 3.51 12.28c.031.108.072.212.121.311l1.79 3.578A15.432 15.432 0 0143.2 85.05v4.515a21.007 21.007 0 003.539 11.689l2.098 3.146H43.2v-3.6h-3.6v3.6h-7.2v-7.2h-3.6v7.2h-7.2v-3.6H18v3.6H3.6V93.6h3.6V90H3.6v-7.2h7.2v-3.6H3.6V72h3.6v-3.6H3.6V16.2h3.6v-3.6H3.6v-9h9v3.6h3.6V3.6h7.2v9H27v-9h21.6v7.2h3.6V3.6h7.2v3.6H63V3.6h7.2v7.2h3.6V3.6H81v3.6h3.6V3.6h9v7.2h3.6V3.6h7.2l.001 47.03zM75.6 25.2H72v-3.6h3.6v3.6zm3.6-3.6h14.4v3.6H79.2v-3.6zM72 28.8h14.4v3.6H72v-3.6zm18 0h3.6v3.6H90v-3.6z" fill="url(#paint0_linear)"/><defs><linearGradient id="paint0_linear" x1="8.901" y1="106.253" x2="104.818" y2="3.485" gradientUnits="userSpaceOnUse"><stop stop-color="#E3781F"/><stop offset=".286" stop-color="#E79755"/><stop offset="1" stop-color="#2D3F84"/></linearGradient></defs></svg>