<svg width="90" height="108" fill="none" xmlns="http://www.w3.org/2000/svg"><path d="M33.762 63.36c-.335 2.502-1.309 6.642-4.163 8.753l-14.926 3.2a16.238 16.238 0 00-12.661 13.7l-1.98 14.91A3.599 3.599 0 003.59 108h82.286a3.602 3.602 0 003.569-4.077l-1.989-14.91a16.238 16.238 0 00-12.663-13.7l-14.927-3.196c-2.88-2.133-3.852-6.34-4.173-8.748 5.465-3.746 8.556-10.248 10.284-16.783 5.058-.774 7.56-4.227 7.56-10.586a10.283 10.283 0 00-1.102-5.026 23.615 23.615 0 001.116-6.276 3.579 3.579 0 001.782-3.098V18a3.6 3.6 0 00-3.008-3.54 20.092 20.092 0 00-4.72-8.533C59.737-1.944 45.454-.18 35.374 1.836 27.592 3.387 24.505.624 24.393.527a1.8 1.8 0 00-2.738.227A31.453 31.453 0 0016.7 14.565 3.6 3.6 0 0014.133 18v3.6a3.6 3.6 0 002.401 3.378c.15 1.775.477 3.531.978 5.24A9.345 9.345 0 0015.933 36c0 6.36 2.497 9.812 7.56 10.586 1.723 6.534 4.81 13.03 10.269 16.774zM5.578 89.49a12.629 12.629 0 019.85-10.655L29.91 75.73l13.023 9.77v18.9H3.59l1.988-14.91zm78.31 0l1.988 14.91H46.533V85.5l13.023-9.769 14.483 3.109a12.629 12.629 0 019.85 10.65zM56.284 73.689L44.733 82.35l-11.55-8.663a17.33 17.33 0 003.922-8.516 21.06 21.06 0 0015.25 0 17.348 17.348 0 003.929 8.517zM44.733 63c-18.29 0-19.786-25.936-19.8-34.085a28.35 28.35 0 01.833-3.715H44.78a8.906 8.906 0 0014.306 0H63.7c.36 1.219.638 2.46.833 3.717C64.519 37.067 63.021 63 44.733 63zM20.685 28.208a24.727 24.727 0 01-.522-3.008h1.867a29.112 29.112 0 00-.62 2.94 6.296 6.296 0 00-.725.068zM17.733 18h25.38a8.998 8.998 0 000 3.6h-25.38V18zm28.8 1.8a5.4 5.4 0 1110.8 0 5.4 5.4 0 01-10.8 0zm14.22-1.8h10.98v3.6h-10.98a9.002 9.002 0 000-3.6zm7.304 10.14a31.5 31.5 0 00-.619-2.94h2.495a21.203 21.203 0 01-.499 3.211 5.942 5.942 0 00-1.378-.272h.001zm-1.206 14.603a74.61 74.61 0 001.224-10.98c.279.045.542.157.767.327A5.267 5.267 0 0169.933 36c0 4.43-1.33 6.091-3.083 6.743h.001zM23.662 4.3a18.574 18.574 0 0012.42 1.064c9.256-1.85 22.32-3.539 28.98 3.108A15.842 15.842 0 0168.52 14.4h-9.434a8.906 8.906 0 00-14.306 0H20.377a29.103 29.103 0 013.285-10.1zM19.533 36a5.267 5.267 0 011.093-3.919c.225-.17.488-.281.766-.326a74.584 74.584 0 001.224 10.98c-1.753-.644-3.083-2.305-3.083-6.735z" fill="url(#paint0_linear)"/><path d="M59.133 93.6a1.8 1.8 0 001.8 1.8h3.6V99a1.8 1.8 0 003.6 0v-3.6h3.6a1.8 1.8 0 000-3.6h-3.6v-3.6a1.8 1.8 0 00-3.6 0v3.6h-3.6a1.8 1.8 0 00-1.8 1.8z" fill="url(#paint1_linear)"/><path d="M23.133 90a5.801 5.801 0 00-5.4 6.12c0 1.748.702 4.68 5.4 4.68s5.4-2.932 5.4-4.68a5.801 5.801 0 00-5.4-6.12zm0 7.2c-1.8 0-1.8-.36-1.8-1.08 0-1.366.824-2.52 1.8-2.52.976 0 1.8 1.154 1.8 2.52 0 .72 0 1.08-1.8 1.08z" fill="url(#paint2_linear)"/><path d="M19.533 88.2a1.8 1.8 0 100-3.6 1.8 1.8 0 000 3.6z" fill="url(#paint3_linear)"/><path d="M15.933 91.8a1.8 1.8 0 100-3.6 1.8 1.8 0 000 3.6z" fill="url(#paint4_linear)"/><path d="M26.733 88.2a1.8 1.8 0 100-3.6 1.8 1.8 0 000 3.6z" fill="url(#paint5_linear)"/><path d="M30.333 91.8a1.8 1.8 0 100-3.6 1.8 1.8 0 000 3.6z" fill="url(#paint6_linear)"/><defs><linearGradient id="paint0_linear" x1="7.374" y1="106.253" x2="102.841" y2="21.51" gradientUnits="userSpaceOnUse"><stop stop-color="#E3781F"/><stop offset=".286" stop-color="#E79755"/><stop offset="1" stop-color="#2D3F84"/></linearGradient><linearGradient id="paint1_linear" x1="60.32" y1="100.567" x2="73.109" y2="86.865" gradientUnits="userSpaceOnUse"><stop stop-color="#E3781F"/><stop offset=".286" stop-color="#E79755"/><stop offset="1" stop-color="#2D3F84"/></linearGradient><linearGradient id="paint2_linear" x1="18.615" y1="100.625" x2="28.206" y2="90.331" gradientUnits="userSpaceOnUse"><stop stop-color="#E3781F"/><stop offset=".286" stop-color="#E79755"/><stop offset="1" stop-color="#2D3F84"/></linearGradient><linearGradient id="paint3_linear" x1="18.03" y1="88.142" x2="21.227" y2="84.716" gradientUnits="userSpaceOnUse"><stop stop-color="#E3781F"/><stop offset=".286" stop-color="#E79755"/><stop offset="1" stop-color="#2D3F84"/></linearGradient><linearGradient id="paint4_linear" x1="14.43" y1="91.742" x2="17.627" y2="88.316" gradientUnits="userSpaceOnUse"><stop stop-color="#E3781F"/><stop offset=".286" stop-color="#E79755"/><stop offset="1" stop-color="#2D3F84"/></linearGradient><linearGradient id="paint5_linear" x1="25.23" y1="88.142" x2="28.427" y2="84.716" gradientUnits="userSpaceOnUse"><stop stop-color="#E3781F"/><stop offset=".286" stop-color="#E79755"/><stop offset="1" stop-color="#2D3F84"/></linearGradient><linearGradient id="paint6_linear" x1="28.83" y1="91.742" x2="32.027" y2="88.316" gradientUnits="userSpaceOnUse"><stop stop-color="#E3781F"/><stop offset=".286" stop-color="#E79755"/><stop offset="1" stop-color="#2D3F84"/></linearGradient></defs></svg>