<svg width="123" height="108" fill="none" xmlns="http://www.w3.org/2000/svg"><path d="M116.505 16.067A32.38 32.38 0 0090.4.054a32.384 32.384 0 00-27.775 12.9l-1.493 1.99-1.492-1.99A32.54 32.54 0 0033.732 0h-.771A32.38 32.38 0 005.64 14.999 36.006 36.006 0 000 34.364v5.892a51.832 51.832 0 0023.493 43.483l36.523 23.928a2.04 2.04 0 002.241-.006l36.726-24.323a51.872 51.872 0 0023.281-43.345V37.37a42.308 42.308 0 00-5.759-21.303zm-67.384 78.58l.75 1.501-16.378-10.73-4.288-2.809-1.167-.764 10.337-15.507c.223-.334.342-.728.342-1.13V58.83c0-.134.002-.27.007-.4a11.245 11.245 0 012.725-6.836l.328-.386 1.077 4.304a2.038 2.038 0 001.976 1.545h4.88a4.066 4.066 0 013.39 1.816 9.64 9.64 0 005.994 4.08v2.255a4.08 4.08 0 01-4.075 4.075 2.038 2.038 0 00-2.038 2.038v7.412a7.093 7.093 0 01-1.199 3.957l-2.534 3.803a2.038 2.038 0 00-.342 1.13v6.113c0 .316.074.629.215.911zm7.936 6.209l-2.038-1.335v-1.71c0-.316-.074-.629-.216-.912l-.021-.044 2.275-2.275v6.276zm16.302-5.435l-4.076 2.7V86.604l4.076-3.057v11.874zm3.808-25.515a13.59 13.59 0 01-3.171 8.07l-7.973 5.979a2.037 2.037 0 00-.815 1.63v15.234l-4.076 2.7V89.661a2.038 2.038 0 00-3.478-1.441l-4.673 4.672V88.24l2.19-3.288a11.157 11.157 0 001.886-6.219v-5.632a8.164 8.164 0 006.113-7.893v-4.076a2.038 2.038 0 00-2.038-2.038 5.573 5.573 0 01-4.641-2.482 8.134 8.134 0 00-3.4-2.897l3.122-3.121-.068.134 7.079 3.54a26.55 26.55 0 0011.816 2.789h.883l1.031 7.718c.227 1.7.298 3.417.213 5.13zM63.17 36.679v6.62a1.533 1.533 0 01-1.53 1.531h-2.546v-3.637a18.58 18.58 0 015.479-13.223 5.06 5.06 0 013.572-1.48h4.411a4.79 4.79 0 013.41 1.414l4.103 4.103a2.036 2.036 0 001.44.597h4.076v3.056a3.06 3.06 0 01-3.056 3.057h-5.095a2.037 2.037 0 00-2.038 2.038V52.98h-.356a22.453 22.453 0 01-9.992-2.359l-3.435-1.716h.026a5.613 5.613 0 005.607-5.607v-6.62H63.17zm55.019 3.314A47.803 47.803 0 0196.732 79.94L77.434 92.722V80.205a17.656 17.656 0 003.803-10.097 32.21 32.21 0 00-.244-5.873l-1.521-11.389V42.793h3.056a7.14 7.14 0 007.133-7.133v-5.094a2.038 2.038 0 00-2.038-2.038h-5.27l-3.506-3.507a8.838 8.838 0 00-6.29-2.606h-4.412a9.136 9.136 0 00-6.454 2.673 22.625 22.625 0 00-6.672 16.105v4.831l-6.957 6.957h-1.64l-1.652-6.607a2.038 2.038 0 00-3.53-.826l-2.897 3.406a15.337 15.337 0 00-3.693 9.34c-.006.178-.009.358-.009.535v5.761l-5.688 8.533a50.971 50.971 0 01-9.225-8.931l-1.835-2.296a2.037 2.037 0 10-3.182 2.547l1.834 2.295a55.053 55.053 0 0010.145 9.78l-2.051 3.077a47.761 47.761 0 01-20.563-39.34v-5.891a31.936 31.936 0 015.002-17.177A28.305 28.305 0 0132.961 4.075h.771A28.446 28.446 0 0156.38 15.4l3.122 4.162a2.037 2.037 0 003.26 0l3.123-4.162a28.308 28.308 0 0147.1 2.72 38.238 38.238 0 015.204 19.25v2.623zm-44.83-5.351h-4.076v-4.076h4.076v4.076zM50.944 65.208h-4.076v-4.076h4.076v4.076zm56.61-.764l-1.834 2.293a54.834 54.834 0 01-15.675 13.408L84.56 83.28a2.037 2.037 0 01-2.022-3.539l5.486-3.135a50.756 50.756 0 0014.514-12.414l1.834-2.294a2.045 2.045 0 011.369-.766 2.032 2.032 0 011.507.433 2.034 2.034 0 01.68 2.172 2.025 2.025 0 01-.373.706zm6.559-21.652v.671a35.494 35.494 0 01-1.825 11.25l-.317.95a2.042 2.042 0 01-1.79 1.407 2.037 2.037 0 01-2.076-2.696l.317-.95a31.46 31.46 0 001.616-9.96v-.672a2.039 2.039 0 014.075 0zm0-10.188v2.038a2.038 2.038 0 11-4.075 0v-2.038a2.039 2.039 0 014.075 0zM14.16 54.374a2.04 2.04 0 01-2.076 2.696 2.036 2.036 0 01-1.79-1.407l-.317-.95a35.52 35.52 0 01-1.826-11.25v-.67a2.038 2.038 0 014.075 0v.67a31.448 31.448 0 001.617 9.962l.317.95z" fill="url(#paint0_linear)"/><defs><linearGradient id="paint0_linear" x1="10.077" y1="106.253" x2="104.458" y2="-8.226" gradientUnits="userSpaceOnUse"><stop stop-color="#E3781F"/><stop offset=".286" stop-color="#E79755"/><stop offset="1" stop-color="#2D3F84"/></linearGradient></defs></svg>