<svg width="109" height="108" fill="none" xmlns="http://www.w3.org/2000/svg"><path d="M23.552 60.12a18.18 18.18 0 00-1.949 8.28c0 8.65 3.377 11.362 9 12.211v14.79c.002.228.048.455.135.667l.01.023v.018C32.63 100.726 40.574 108 54.004 108c10.701 0 18.096-4.68 21.498-9h1.902a5.4 5.4 0 005.069-3.6h5.731a3.6 3.6 0 003.6 3.6h10.8a5.4 5.4 0 000-10.8h-10.8a3.6 3.6 0 00-3.6 3.6h-5.731a5.4 5.4 0 00-5.069-3.6v-7.589c5.623-.85 9-3.56 9-12.21a18.18 18.18 0 00-1.942-8.263 43.488 43.488 0 008.782-21.35c.047-.33.076-.66.114-.99a44.627 44.627 0 007.963 2.7c.412.1.835.15 1.26.15a5.46 5.46 0 003.564-1.325 5.361 5.361 0 001.829-4.624l-2.276-17.84A12.538 12.538 0 0093.15 5.4H77.403a23.132 23.132 0 00-3.042.198 39.816 39.816 0 00-40.716 0 23.13 23.13 0 00-3.042-.198H14.857a12.52 12.52 0 00-12.54 11.394L.024 34.771a5.332 5.332 0 001.836 4.56 5.45 5.45 0 004.824 1.174 44.573 44.573 0 007.98-2.705 43.97 43.97 0 008.887 22.32zM91.803 91.8h10.8a1.8 1.8 0 010 3.6h-10.8v-3.6zm-46.8-1.8a1.8 1.8 0 001.8-1.8h5.4V90a1.8 1.8 0 003.6 0v-1.8h5.4a1.8 1.8 0 003.6 0h3.906a1.8 1.8 0 011.284.54l.572.573a5.373 5.373 0 00-2.162 4.287h-34.2v-1.055l3.81-3.805a1.8 1.8 0 011.284-.54h3.906a1.8 1.8 0 001.8 1.8zm9 14.4c-9.459 0-15.5-3.96-18.31-7.2h34.114c.412.456.899.839 1.44 1.13a24.875 24.875 0 01-17.244 6.07zm25.2-10.8a1.8 1.8 0 01-1.8 1.8h-3.6a1.8 1.8 0 010-3.6h3.6a1.8 1.8 0 011.8 1.8zm-5.4-6.145l-1.26-1.26A5.376 5.376 0 0068.71 84.6h-3.906a1.8 1.8 0 00-3.6 0h-5.4v-1.8a1.8 1.8 0 00-3.6 0v1.8h-5.4a1.8 1.8 0 00-3.6 0h-3.906a5.376 5.376 0 00-3.828 1.59l-1.26 1.26v-6.524c1.668.074 3.47.074 5.394.074 7.895 0 12.32-2.741 14.4-4.58 2.08 1.839 6.505 4.58 14.4 4.58 1.924 0 3.726 0 5.4-.074v6.529zm-5.4-10.055c-8.082 0-11.62-3.152-12.6-4.235V66.6a1.8 1.8 0 00-3.6 0v6.561c-.995 1.102-4.538 4.24-12.6 4.24-11.414 0-14.4-.36-14.4-9 0-10.421 9.526-15.62 18.29-18.2 1.13 4.562 5.508 9.2 10.51 9.2s9.38-4.638 10.51-9.2c8.764 2.58 18.29 7.779 18.29 18.2 0 8.64-2.986 9-14.4 9zM46.803 48c0-1.049 0-3 7.2-3s7.2 1.951 7.2 3c0 3.008-3.296 7.8-7.2 7.8-3.904 0-7.2-4.791-7.2-7.8zM30.668 16.264a1.8 1.8 0 00-2.21 1.26C24.88 30.643 12.76 35.361 5.852 37.005a1.824 1.824 0 01-1.634-.397 1.744 1.744 0 01-.616-1.44l2.292-17.983A8.955 8.955 0 0114.857 9h15.746c4.345 0 5.719 1.08 5.85 1.19a1.8 1.8 0 002.774-2.29c-.24-.287-.52-.54-.832-.749a36.072 36.072 0 0131.216 0 4.01 4.01 0 00-.832.75 1.85 1.85 0 00.281 2.572 1.742 1.742 0 002.484-.274c.01-.013 1.298-1.199 5.86-1.199H93.15a8.973 8.973 0 018.969 8.25l2.284 17.85a1.766 1.766 0 01-.608 1.512 1.823 1.823 0 01-1.635.396c-6.906-1.643-19.028-6.361-22.604-19.478a1.8 1.8 0 10-3.474.947A28.647 28.647 0 0089.877 36c-.05.76-.09 1.514-.203 2.317a39.985 39.985 0 01-7.278 18.588c-3.616-4.586-9.626-8.14-17.766-10.404-1.112-5.085-7.918-5.1-10.627-5.1-2.709 0-9.515.015-10.62 5.104-8.13 2.26-14.135 5.808-17.753 10.388A40.5 40.5 0 0118.125 36a28.65 28.65 0 0013.806-17.532 1.8 1.8 0 00-1.263-2.205z" fill="url(#paint0_linear)"/><path d="M30.603 70.2a1.8 1.8 0 100-3.6 1.8 1.8 0 000 3.6z" fill="url(#paint1_linear)"/><path d="M37.803 73.8a1.8 1.8 0 100-3.6 1.8 1.8 0 000 3.6z" fill="url(#paint2_linear)"/><path d="M37.803 66.6a1.8 1.8 0 100-3.6 1.8 1.8 0 000 3.6z" fill="url(#paint3_linear)"/><path d="M77.403 70.2a1.8 1.8 0 100-3.6 1.8 1.8 0 000 3.6z" fill="url(#paint4_linear)"/><path d="M70.203 73.8a1.8 1.8 0 100-3.6 1.8 1.8 0 000 3.6z" fill="url(#paint5_linear)"/><path d="M70.203 66.6a1.8 1.8 0 100-3.6 1.8 1.8 0 000 3.6z" fill="url(#paint6_linear)"/><path d="M30.603 34.2a1.8 1.8 0 001.8 1.8 9.11 9.11 0 014.13.89 15.591 15.591 0 00-10.8 5.04 1.8 1.8 0 102.544 2.544c6.14-6.14 12.084-3.376 12.323-3.261a1.8 1.8 0 002.52-2.18c-.097-.273-2.316-6.633-10.717-6.633a1.8 1.8 0 00-1.8 1.8z" fill="url(#paint7_linear)"/><path d="M67.408 41.22c.057-.032 6.11-2.95 12.323 3.262a1.8 1.8 0 002.545-2.545 15.584 15.584 0 00-10.811-5.04A9.138 9.138 0 0175.603 36a1.8 1.8 0 000-3.6c-8.4 0-10.62 6.36-10.708 6.631a1.8 1.8 0 002.52 2.18l-.007.01z" fill="url(#paint8_linear)"/><defs><linearGradient id="paint0_linear" x1="8.901" y1="106.253" x2="104.819" y2="3.482" gradientUnits="userSpaceOnUse"><stop stop-color="#E3781F"/><stop offset=".286" stop-color="#E79755"/><stop offset="1" stop-color="#2D3F84"/></linearGradient><linearGradient id="paint1_linear" x1="29.1" y1="70.142" x2="32.297" y2="66.716" gradientUnits="userSpaceOnUse"><stop stop-color="#E3781F"/><stop offset=".286" stop-color="#E79755"/><stop offset="1" stop-color="#2D3F84"/></linearGradient><linearGradient id="paint2_linear" x1="36.3" y1="73.742" x2="39.497" y2="70.316" gradientUnits="userSpaceOnUse"><stop stop-color="#E3781F"/><stop offset=".286" stop-color="#E79755"/><stop offset="1" stop-color="#2D3F84"/></linearGradient><linearGradient id="paint3_linear" x1="36.3" y1="66.542" x2="39.497" y2="63.116" gradientUnits="userSpaceOnUse"><stop stop-color="#E3781F"/><stop offset=".286" stop-color="#E79755"/><stop offset="1" stop-color="#2D3F84"/></linearGradient><linearGradient id="paint4_linear" x1="75.9" y1="70.142" x2="79.097" y2="66.716" gradientUnits="userSpaceOnUse"><stop stop-color="#E3781F"/><stop offset=".286" stop-color="#E79755"/><stop offset="1" stop-color="#2D3F84"/></linearGradient><linearGradient id="paint5_linear" x1="68.7" y1="73.742" x2="71.897" y2="70.316" gradientUnits="userSpaceOnUse"><stop stop-color="#E3781F"/><stop offset=".286" stop-color="#E79755"/><stop offset="1" stop-color="#2D3F84"/></linearGradient><linearGradient id="paint6_linear" x1="68.7" y1="66.542" x2="71.897" y2="63.116" gradientUnits="userSpaceOnUse"><stop stop-color="#E3781F"/><stop offset=".286" stop-color="#E79755"/><stop offset="1" stop-color="#2D3F84"/></linearGradient><linearGradient id="paint7_linear" x1="26.669" y1="44.82" x2="36.961" y2="29.069" gradientUnits="userSpaceOnUse"><stop stop-color="#E3781F"/><stop offset=".286" stop-color="#E79755"/><stop offset="1" stop-color="#2D3F84"/></linearGradient><linearGradient id="paint8_linear" x1="66.283" y1="44.783" x2="76.544" y2="29.078" gradientUnits="userSpaceOnUse"><stop stop-color="#E3781F"/><stop offset=".286" stop-color="#E79755"/><stop offset="1" stop-color="#2D3F84"/></linearGradient></defs></svg>