<svg width="94" height="108" fill="none" xmlns="http://www.w3.org/2000/svg"><path d="M31.119 43.932a2.746 2.746 0 115.492 0 2.746 2.746 0 01-5.492 0zm19.22 2.746a2.746 2.746 0 100-5.491 2.746 2.746 0 000 5.491zm33.864 39.2v1.986A20.16 20.16 0 0164.068 108h-3.661A20.157 20.157 0 0140.27 87.864v-1.889c-15.3-.948-27.457-13.695-27.457-29.23v-7.424a12.793 12.793 0 01-4.673-5.15l-2.151-4.3A57.035 57.035 0 010 14.494V1.831A1.83 1.83 0 012.961.39l21.43 16.839a12.729 12.729 0 014.62 7.405l4.086-2.043a20.23 20.23 0 0118.01 0l4.086 2.043a12.73 12.73 0 014.619-7.405L81.242.392a1.83 1.83 0 012.961 1.439v12.663a57.035 57.035 0 01-5.99 25.377l-2.151 4.3a12.794 12.794 0 01-4.672 5.15v7.425c0 15.534-12.158 28.281-27.458 29.23v1.888a16.493 16.493 0 0016.475 16.475h3.66a16.493 16.493 0 0016.475-16.475v-1.986a10.983 10.983 0 113.661 0zM67.73 47.049v-3.967l-1.83-1.22v5.64a9.14 9.14 0 001.83-.451v-.001zm12.813-32.555V9.585l-6.737 13.474a23.832 23.832 0 01-7.907 9.038v5.364l4.677 3.118a1.83 1.83 0 01.815 1.523v2.482a9.23 9.23 0 001.398-2.05l2.151-4.3a53.358 53.358 0 005.603-23.74zM22.13 20.108L7.12 8.313l6.554 13.109a20.169 20.169 0 006.842 7.748l.637.426a1.83 1.83 0 01.814 1.523v17.965l6.549 17.025a8.29 8.29 0 007.194 5.262l4.562-6.083v-3.055a10.337 10.337 0 01-4.434-1.081 5.225 5.225 0 012.337-9.898h7.856a5.224 5.224 0 012.336 9.898 10.337 10.337 0 01-4.434 1.08v3.056l4.562 6.083a8.289 8.289 0 007.195-5.261l6.548-17.026V31.119a1.83 1.83 0 01.815-1.523l.638-.426a20.169 20.169 0 006.842-7.748l6.553-13.109-15.01 11.795a9.1 9.1 0 00-3.499 7.196v.154a1.83 1.83 0 01-2.649 1.637l-6.458-3.229a16.554 16.554 0 00-14.735 0l-6.458 3.229a1.831 1.831 0 01-2.649-1.637v-.154a9.1 9.1 0 00-3.498-7.196zm25.464 36.37a1.565 1.565 0 00-1.563-1.563h-7.856a1.564 1.564 0 00-.7 2.962c.92.459 1.934.698 2.962.7h3.331a6.657 6.657 0 002.962-.7 1.554 1.554 0 00.864-1.398zM40.271 71.39h3.661l-1.83-2.44-1.83 2.44zM18.305 41.86l-1.83 1.22v3.969a9.14 9.14 0 001.83.453V41.86zm-5.491 2.723v-2.482a1.832 1.832 0 01.815-1.523l4.676-3.118v-5.364a23.83 23.83 0 01-7.907-9.038L3.661 9.585v4.909a53.356 53.356 0 005.604 23.74l2.151 4.3a9.231 9.231 0 001.398 2.05zm29.288 37.789a25.656 25.656 0 0025.627-25.627v-5.874c-.786.195-1.588.316-2.396.362l-6.227 16.19a11.97 11.97 0 01-11.105 7.627H36.203a11.97 11.97 0 01-11.106-7.627l-6.226-16.19a12.923 12.923 0 01-2.396-.362v5.874a25.656 25.656 0 0025.627 25.627zm47.593-7.322a7.322 7.322 0 10-7.322 7.322 7.33 7.33 0 007.322-7.322zm-7.322-3.661a3.661 3.661 0 100 7.322 3.661 3.661 0 000-7.322z" fill="url(#paint0_linear)"/><defs><linearGradient id="paint0_linear" x1="7.694" y1="106.253" x2="103.558" y2="17.469" gradientUnits="userSpaceOnUse"><stop stop-color="#E3781F"/><stop offset=".286" stop-color="#E79755"/><stop offset="1" stop-color="#2D3F84"/></linearGradient></defs></svg>