<svg width="108" height="108" fill="none" xmlns="http://www.w3.org/2000/svg"><path d="M21.6 13.616a3.6 3.6 0 117.2 0 3.6 3.6 0 01-7.2 0zm35.998 43.986h3.6v-3.6h-3.6v3.6zm0 9h3.6v-3.6h-3.6v3.6zm16.2 0h3.6v-3.6h-3.6v3.6zm7.2 0h3.6v-3.6h-3.6v3.6zm0-9h-3.6v3.6h3.6v-3.6zM.013 15.64A1.8 1.8 0 011.8 13.616h11.487l1.831-3.662A17.932 17.932 0 0132.598.056l6.86.529a13.414 13.414 0 0110.198 5.972l7.64 11.46c.014.02.026.04.038.06l.098.16a30.573 30.573 0 0135.02 9.672 62.53 62.53 0 011.335-1.953 1.801 1.801 0 013.21 1.483l-1.358 5.434a30.414 30.414 0 013.323 15.376c.06.304.042.62-.055.914a30.364 30.364 0 01-2.472 9.887 38.212 38.212 0 0111.561 27.35v19.8a1.8 1.8 0 01-1.799 1.8H30.599a1.797 1.797 0 01-1.497-.801l-2.602-3.903a3.596 3.596 0 01.004-4 3.6 3.6 0 01.994-.992l3.101-2.067v-5.89L23.557 72.74l-5.118-10.237a38.443 38.443 0 01-4.04-17.105V34.773l-7.577-2.165a7.634 7.634 0 01-5.487-6.406L.015 15.641zM39.6 87.209l-9.897-8.797 4.368 10.92a1.8 1.8 0 01.129.669v7.2a1.8 1.8 0 01-.801 1.497l-3.903 2.601 2.067 3.101h6.474l-.916-1.373a3.613 3.613 0 01.45-4.543l2.029-2.029v-9.246zm32.399-.808h-7.2V104.4h7.2v-18zm1.8-9.477a30.789 30.789 0 01-10.8 0V82.8h10.8v-5.877zM93.48 46.802h1.918a26.908 26.908 0 00-1.137-7.753 56.412 56.412 0 00-.78 7.753zm-.1 10.237a26.776 26.776 0 001.777-6.637h-1.705v5.769c0 .29-.024.581-.072.868zM77.49 76.022a27.828 27.828 0 006.403 15.723l2.086 2.503a1.801 1.801 0 01-1.383 2.952h-9v7.2h28.8v-18a34.6 34.6 0 00-9.692-23.987A30.745 30.745 0 0177.49 76.022zM80.76 93.6a31.6 31.6 0 01-4.425-7.359c-.232.105-.484.16-.738.16v7.2h5.163zm11.006-33.568a5.254 5.254 0 01-8.944-4.238l.097-.964c.148-1.485.353-2.96.613-4.428h-8.081v5.77a5.219 5.219 0 01-1.54 3.715l-.144.145a5.254 5.254 0 01-8.944-4.238l.097-.964c.148-1.485.352-2.96.612-4.428h-11.68v5.77a5.22 5.22 0 01-1.54 3.715l-.145.145a5.252 5.252 0 01-7.152.257 26.989 26.989 0 0047.133-.657 5.181 5.181 0 01-.237.255l-.145.145zm-44.484-2.546a1.654 1.654 0 002.34 0l.145-.145a1.642 1.642 0 00.485-1.17v-7.612c0-3.211.259-6.417.772-9.587a56.381 56.381 0 00-4.121 16.216l-.097.964a1.648 1.648 0 00.476 1.334zm21.6 0a1.655 1.655 0 002.34 0l.144-.145a1.642 1.642 0 00.486-1.17v-7.612c0-3.211.258-6.417.772-9.587a56.381 56.381 0 00-4.122 16.216l-.097.964a1.648 1.648 0 00.476 1.334zm21.74-18.514a56.381 56.381 0 00-4.121 16.216l-.097.964a1.655 1.655 0 002.816 1.334l.145-.145a1.643 1.643 0 00.486-1.17V48.56c0-3.21.258-6.417.772-9.587zm-40.257-24.86c.02.206.032.411.032.617v7.344a30.657 30.657 0 013.723-2.328l-3.755-5.632zM41.4 46.803h3.285a60.03 60.03 0 019.504-20.846 1.8 1.8 0 013.21 1.483l-1.863 7.457a56.414 56.414 0 00-1.655 11.906h12.403a60.029 60.029 0 019.504-20.846 1.8 1.8 0 013.211 1.483l-1.864 7.457a56.407 56.407 0 00-1.654 11.906h8.802a60.09 60.09 0 016.15-15.585A26.992 26.992 0 0041.4 46.802zm1.826 8.992l.096-.964c.149-1.485.353-2.961.613-4.428H41.64c.28 2.089.805 4.138 1.564 6.104a5.321 5.321 0 01.022-.712zM46.8 25.15V14.73a2.928 2.928 0 00-1.38-2.48 2.897 2.897 0 00-1.533-.433h-3.64a3.133 3.133 0 00-3.114 2.67l-1.567 10.188a10.674 10.674 0 004.543 10.474 30.707 30.707 0 016.69-10zM5.689 23.5l-1.031.258.25 1.998a4.04 4.04 0 002.903 3.39l8.884 2.539A1.8 1.8 0 0118 33.415v11.982a34.825 34.825 0 003.657 15.495l4.997 9.994 15.94 14.17A1.8 1.8 0 0143.2 86.4v10.8a1.8 1.8 0 01-.527 1.272l-2.556 2.557 2.246 3.37h8.036V83.346L47.102 78.4a1.8 1.8 0 112.995-1.998l3.6 5.4a1.8 1.8 0 01.302.999V104.4h7.2v-18a1.8 1.8 0 01-1.8-1.8v-8.55a30.672 30.672 0 01-21.51-26.887 1.79 1.79 0 01-.054-.914 30.532 30.532 0 011.071-9.606 14.263 14.263 0 01-6.898-14.515l1.567-10.188a6.713 6.713 0 016.671-5.724h3.641a6.514 6.514 0 013.05.752l-.276-.415a9.836 9.836 0 00-7.478-4.378l-6.86-.529a14.345 14.345 0 00-13.984 7.918L16.01 16.22a1.8 1.8 0 01-1.61.995h-3.61a6.737 6.737 0 01-5.1 6.284zm-1.85-6.284l.369 2.944.607-.152a3.145 3.145 0 002.374-2.792h-3.35z" fill="url(#paint0_linear)"/><defs><linearGradient id="paint0_linear" x1="8.901" y1="106.253" x2="104.818" y2="3.488" gradientUnits="userSpaceOnUse"><stop stop-color="#E3781F"/><stop offset=".286" stop-color="#E79755"/><stop offset="1" stop-color="#2D3F84"/></linearGradient></defs></svg>