<svg width="97" height="108" fill="none" xmlns="http://www.w3.org/2000/svg"><path d="M93.024 72.003a3.132 3.132 0 002.217-.924 3.16 3.16 0 00.92-2.226v-8.099a3.16 3.16 0 00-.92-2.226 3.134 3.134 0 00-2.217-.923H74.65v-5.4h1.793a5.373 5.373 0 003.8-1.583 5.416 5.416 0 001.577-3.816V36.008a5.416 5.416 0 00-1.577-3.816 5.372 5.372 0 00-3.8-1.583H49.097l2.121-4.297a1.807 1.807 0 00-.81-2.411l-4.812-2.4 3.984-8.05 3.212 1.6a5.36 5.36 0 005.926-.767 5.396 5.396 0 001.83-3.702 5.42 5.42 0 00-1.313-3.916 5.381 5.381 0 00-1.661-1.287L47.94.577a5.36 5.36 0 00-5.948.749 5.397 5.397 0 00-1.836 3.714 5.42 5.42 0 001.329 3.926c.468.535 1.037.97 1.674 1.283l3.21 1.6-3.984 8.051-4.82-2.402a1.786 1.786 0 00-2.404.813l-24.29 49.215a4.523 4.523 0 001.259 5.55l-2.431 4.917a5.405 5.405 0 00.96 6.158L.186 105.4a1.81 1.81 0 00.257 1.984 1.793 1.793 0 001.923.52 1.788 1.788 0 001.033-.906l10.469-21.245a5.375 5.375 0 003.478-.773 5.406 5.406 0 001.986-2.188l2.431-4.919c.374.101.759.153 1.145.154a4.48 4.48 0 002.363-.678 4.506 4.506 0 001.655-1.824L39.66 49.728a5.386 5.386 0 001.945 1.817c.79.433 1.674.66 2.574.66h1.792v5.58a8.972 8.972 0 00-5.146 3.129 9.037 9.037 0 00-2.024 5.69v32.395a9.029 9.029 0 002.628 6.36 8.95 8.95 0 006.335 2.638h25.095a8.864 8.864 0 002.026-.232c.505.154 1.03.233 1.558.232h14.34a5.37 5.37 0 003.801-1.583 5.415 5.415 0 001.577-3.816V81.001a5.424 5.424 0 00-.989-3.115 5.389 5.389 0 00-2.596-1.974v-3.91h.448zM44.754 7.025a1.806 1.806 0 01-.808-2.412 1.786 1.786 0 012.403-.812l9.632 4.801a1.793 1.793 0 01.921 1.038 1.806 1.806 0 01-1.135 2.296 1.787 1.787 0 01-1.38-.11l-9.633-4.8zM44 24.725l3.21 1.6-2.608 5.284-2.087 4.228-3.22-1.605L44 24.724zm-6.423-3.202l3.212 1.601-4.705 9.508-3.202-1.596 4.695-9.513zM16.12 81.193a1.786 1.786 0 01-2.397.8 1.807 1.807 0 01-.814-2.4l2.39-4.838 3.212 1.6-2.391 4.837zm19.932-32.26l-4.801-2.394-1.594 3.224 4.803 2.394-1.591 3.225-4.805-2.395-1.594 3.224 4.807 2.396-1.592 3.225-4.81-2.397-1.594 3.224 4.811 2.398-1.59 3.225-4.815-2.398-1.594 3.224 4.816 2.4-1.194 2.419a.897.897 0 01-1.202.404l-8.028-4a.9.9 0 01-.403-1.207l13.929-28.22 9.633 4.802-1.592 3.226zm4.68-9.483l-1.496 3.032-9.622-4.796 1.489-3.047.186-.378 9.632 4.8-.19.389zm3.446 9.156c-.475 0-.931-.19-1.267-.528a1.806 1.806 0 01-.526-1.272v-2.568l1.569-3.211 3.366-6.819h29.123c.475 0 .93.19 1.266.528.336.337.525.795.526 1.272v1.8H67.481c-.475 0-.931.19-1.267.527a1.803 1.803 0 000 2.545c.336.338.792.527 1.267.527h10.755v5.4c0 .476-.19.934-.526 1.271a1.79 1.79 0 01-1.266.528H44.178zm-1.793 17.997a5.417 5.417 0 011.577-3.816 5.372 5.372 0 013.8-1.583c.476 0 .932-.19 1.268-.527.336-.337.525-.795.525-1.273v-7.198h21.51v16.197h-28.68v-1.8zm5.378 37.795a5.375 5.375 0 01-3.8-1.583 5.417 5.417 0 01-1.578-3.816v-1.8h28.68v5.399a5.4 5.4 0 00.308 1.8h-23.61zm23.302-23.397V93.6h-28.68V72.002H74.65v3.909a5.389 5.389 0 00-2.596 1.974c-.642.91-.988 2-.989 3.115zm21.51 21.597c0 .477-.19.935-.526 1.272a1.79 1.79 0 01-1.267.528h-14.34a1.79 1.79 0 01-1.266-.528 1.805 1.805 0 01-.526-1.272v-1.8h17.925v1.8zm0-12.598H88.99c-.475 0-.931.19-1.268.527a1.803 1.803 0 000 2.545c.337.338.793.528 1.268.528h3.585v3.599H74.65V86.401h17.925V90zm0-7.199H74.65v-1.8c0-.477.19-.934.526-1.272a1.79 1.79 0 011.266-.527h14.34c.476 0 .931.19 1.267.527.336.338.525.795.526 1.272v1.8zm-14.34-7.199v-3.6H88.99v3.6H78.236zm-3.585-7.199v-7.199h17.925v7.2H74.65zM65.689 87.3a2.71 2.71 0 01-.788 1.91A2.683 2.683 0 0163 90h-5.378a2.683 2.683 0 01-1.9-.79 2.705 2.705 0 010-3.819 2.683 2.683 0 011.9-.79H63c.713 0 1.397.284 1.901.79.504.507.788 1.193.788 1.91zm-7.17-8.098v-1.8c0-.477.189-.935.525-1.273a1.788 1.788 0 012.535 0c.336.338.525.796.525 1.273v1.8c0 .477-.19.935-.525 1.272a1.789 1.789 0 01-2.535 0 1.803 1.803 0 01-.525-1.272zm-3.585 3.6c-.476 0-.932-.19-1.268-.528A1.803 1.803 0 0153.141 81v-1.8c0-.477.19-.934.525-1.272a1.789 1.789 0 012.535 0c.336.337.525.795.525 1.273v1.8c0 .477-.189.934-.525 1.272a1.789 1.789 0 01-1.267.527zm12.547-3.6v1.8c0 .477-.189.934-.525 1.272a1.789 1.789 0 01-2.535 0A1.803 1.803 0 0163.896 81v-1.8c0-.477.189-.934.525-1.272a1.789 1.789 0 012.535 0c.336.337.525.795.525 1.273zM78.236 91.8c0-.478.189-.935.525-1.273A1.789 1.789 0 0180.028 90h1.793c.475 0 .931.19 1.267.527a1.803 1.803 0 010 2.545 1.789 1.789 0 01-1.267.528h-1.793c-.475 0-.93-.19-1.267-.528a1.803 1.803 0 01-.525-1.272zM54.934 39.607c0-.477.189-.935.525-1.272a1.789 1.789 0 011.267-.527h3.585c.475 0 .931.19 1.268.527a1.803 1.803 0 010 2.545 1.788 1.788 0 01-1.268.527h-3.585a1.79 1.79 0 01-1.267-.527 1.803 1.803 0 01-.525-1.273z" fill="url(#paint0_linear)"/><defs><linearGradient id="paint0_linear" x1="7.925" y1="106.253" x2="103.964" y2="14.634" gradientUnits="userSpaceOnUse"><stop stop-color="#E3781F"/><stop offset=".286" stop-color="#E79755"/><stop offset="1" stop-color="#2D3F84"/></linearGradient></defs></svg>