<svg width="101" height="108" fill="none" xmlns="http://www.w3.org/2000/svg"><path d="M20.948 50.4a2.473 2.473 0 011.53-2.287 2.48 2.48 0 013.377 1.804 2.472 2.472 0 01-1.053 2.54 2.48 2.48 0 01-3.129-.307 2.474 2.474 0 01-.725-1.75zm17.569 2.475a2.48 2.48 0 002.289-1.528A2.473 2.473 0 0039 47.973a2.48 2.48 0 00-2.544 1.052 2.473 2.473 0 002.06 3.85zM2.901 37.845a9.832 9.832 0 01-2.902-7v-7.08a5.759 5.759 0 013.562-5.326 5.776 5.776 0 015.9.894l7.765 6.464a7.178 7.178 0 012.594 5.532v2.601l.178-.029.17-.026a74.074 74.074 0 0120.91-.003l.21.032c.052.007.104.017.156.026v-2.601a7.172 7.172 0 012.595-5.533l7.761-6.46a5.776 5.776 0 019.026 2.223c.29.699.44 1.448.44 2.206v7.08a9.824 9.824 0 01-2.903 7l-2.504 2.5v6.995a6.71 6.71 0 01-3.734 6.037l-3.473 1.735V59.4c0 .229-.044.456-.13.669L45.188 68.4l3.199 7.987 4.088 4.084a5.368 5.368 0 011.584 3.82V88.2h4.055a4.964 4.964 0 013.502 1.451 4.953 4.953 0 011.453 3.499v7.65a3.6 3.6 0 003.604 3.6 3.6 3.6 0 003.604-3.6V68.22a9.027 9.027 0 01-5.174-3.13 9.01 9.01 0 01-2.034-5.69v-18a1.799 1.799 0 011.802-1.8h5.406v-3.83a7.22 7.22 0 01-3.57-2.17 1.798 1.798 0 01.746-2.898 1.804 1.804 0 011.939.498 3.604 3.604 0 006.28-2.678 3.598 3.598 0 00-3.593-3.322 1.803 1.803 0 01-1.802-1.8V10.8a5.409 5.409 0 01-3.823-1.582A5.397 5.397 0 0170.276 0H93.7a1.803 1.803 0 011.802 1.8v94.437l.105.07a11.873 11.873 0 015.301 9.893 1.8 1.8 0 01-1.802 1.8h-18.02a1.801 1.801 0 01-1.802-1.8 11.856 11.856 0 015.3-9.893l.106-.07V10.8H73.88v11.028a7.208 7.208 0 013.898 2.562 7.195 7.195 0 01-3.898 11.382V39.6h5.406a1.803 1.803 0 011.801 1.8v18a9.01 9.01 0 01-2.033 5.69 9.027 9.027 0 01-5.174 3.13v32.58c0 1.91-.76 3.741-2.111 5.091a7.213 7.213 0 01-10.194 0 7.195 7.195 0 01-2.11-5.091v-7.65a1.35 1.35 0 00-1.352-1.35H53.87a9.039 9.039 0 01-3.416 5.4l-1.582 1.185a5.399 5.399 0 013.384 5.009v2.806a1.801 1.801 0 01-1.802 1.8H10.812a1.8 1.8 0 01-1.802-1.8v-3.175a5.363 5.363 0 012.395-4.487l-1.559-1.557a8.939 8.939 0 01-2.638-6.362v-6.327a5.362 5.362 0 011.584-3.82l4.088-4.084 3.198-7.988-3.335-8.332a1.797 1.797 0 01-.13-.668v-4.288l-3.472-1.734a6.722 6.722 0 01-3.735-6.038v-6.995l-2.504-2.5zM93.156 99h-6.117l-.454.302a8.27 8.27 0 00-3.499 5.098h14.022a8.271 8.271 0 00-3.499-5.098L93.156 99zm-1.257-3.6V10.8h-3.604v84.6H91.9zm0-88.2V3.6H70.276a1.803 1.803 0 00-1.802 1.8 1.8 1.8 0 001.802 1.8h21.623zM66.672 46.8h10.812v-3.6H66.672v3.6zm5.406 18a5.415 5.415 0 003.82-1.583 5.403 5.403 0 001.586-3.817v-9H66.672v9a5.403 5.403 0 001.585 3.817 5.415 5.415 0 003.82 1.583zm-55.86 36.425l-.495-.988a1.793 1.793 0 01-.502.373l-1.613.805a1.798 1.798 0 00-.994 1.61v1.375h3.604v-3.175zM43.246 95.4h-7.208v1.375l1.611 3.22c.126.25.19.526.19.805v3.6h3.605v-3.6a1.8 1.8 0 01.19-.805l1.612-3.22V95.4zm0-7.2h-7.208v3.6h7.208v-3.6zm5.406 15.194a1.8 1.8 0 00-1.233-1.708l-2.23-.742-.141.281v3.175h3.604v-1.006zm1.49-11.594H46.85v3.6l1.442-1.08a5.412 5.412 0 001.85-2.52zm-4.965-13.731l-2.035-5.084a7.662 7.662 0 01-6.27 2.599 7.67 7.67 0 01-5.877-3.396l-.362-.543-.362.543a7.66 7.66 0 01-5.877 3.395 7.67 7.67 0 01-6.27-2.598l-2.035 5.084a1.81 1.81 0 01-.4.604l-4.349 4.345a1.789 1.789 0 00-.528 1.274v6.327a5.432 5.432 0 001.583 3.816l2.02 2.02V88.2a1.8 1.8 0 011.803-1.8 1.803 1.803 0 011.802 1.8v8.575l1.611 3.22c.125.25.19.526.19.805v3.6h3.604v-3.6a1.8 1.8 0 01.19-.805l1.612-3.22V88.2a1.8 1.8 0 011.802-1.8 1.803 1.803 0 011.802 1.8v9c0 .28-.065.555-.19.805l-1.612 3.22v3.175h7.208v-3.175l-1.612-3.22a1.798 1.798 0 01-.19-.805V86.4a1.799 1.799 0 011.802-1.8h10.812a1.803 1.803 0 011.801 1.8v1.8h3.604v-3.908a1.786 1.786 0 00-.528-1.274l-4.35-4.345a1.802 1.802 0 01-.399-.605zM25.227 63c0-.613.105-1.222.31-1.8h-1.649a4.074 4.074 0 00-4.067 4.063v2.674a4.06 4.06 0 002.889 3.889 4.07 4.07 0 004.562-1.635l1.433-2.147A5.412 5.412 0 0125.227 63zm5.406 1.8a1.804 1.804 0 001.767-2.151 1.8 1.8 0 00-2.456-1.312A1.802 1.802 0 0028.83 63a1.8 1.8 0 001.802 1.8zm5.406-1.8a5.404 5.404 0 01-3.478 5.044l1.433 2.147a4.067 4.067 0 004.562 1.635 4.067 4.067 0 002.889-3.889v-2.674a4.074 4.074 0 00-4.067-4.063h-1.65a5.37 5.37 0 01.31 1.8zm9.01-27.58c.378.27.734.57 1.064.898l.032.031c.172.173.335.353.49.537l3.82-5.086v-3a1.799 1.799 0 011.801-1.8 1.803 1.803 0 011.802 1.8v3.6c0 .39-.126.768-.36 1.08l-5.261 7.007a8.61 8.61 0 01.216 1.91v8.69l1.86-.929a3.137 3.137 0 001.743-2.818V39.6a1.797 1.797 0 01.528-1.273l3.032-3.028a6.257 6.257 0 001.846-4.454v-7.08a2.162 2.162 0 00-2.167-2.165c-.508.001-1 .18-1.39.503l-7.759 6.46a3.59 3.59 0 00-1.297 2.766v4.09zm-28.831 6.977v16.656l.985 2.46a7.67 7.67 0 016.685-3.913h13.49a7.68 7.68 0 016.686 3.913l.985-2.46V42.397a4.916 4.916 0 00-1.453-3.502l-.031-.031a4.963 4.963 0 00-2.799-1.399l-.213-.032a70.413 70.413 0 00-19.858.002l-.174.027a4.962 4.962 0 00-2.82 1.402l-.031.031a4.918 4.918 0 00-1.453 3.502zM3.604 30.845A6.251 6.251 0 005.45 35.3l3.032 3.028c.337.338.527.796.527 1.273v7.74a3.133 3.133 0 001.744 2.819l1.86.929v-8.691c0-.643.072-1.283.215-1.91L7.57 33.48a1.799 1.799 0 01-.361-1.08v-3.6A1.8 1.8 0 019.01 27a1.803 1.803 0 011.802 1.8v3l3.818 5.085c.156-.184.319-.364.491-.536l.032-.032c.33-.328.686-.628 1.065-.898v-4.09a3.585 3.585 0 00-1.297-2.765L7.158 22.1a2.18 2.18 0 00-2.217-.336 2.167 2.167 0 00-1.337 2v7.08zM73.88 61.2v-1.8h1.802v-3.6H73.88V54h-3.604v1.8h-1.802v3.6h1.802v1.8h3.604zM66.672 72h-3.604v3.6h3.604V72zm-3.604 14.4h3.604v-7.2h-3.604v7.2z" fill="url(#paint0_linear)"/><defs><linearGradient id="paint0_linear" x1="8.317" y1="106.253" x2="104.462" y2="10.004" gradientUnits="userSpaceOnUse"><stop stop-color="#E3781F"/><stop offset=".286" stop-color="#E79755"/><stop offset="1" stop-color="#2D3F84"/></linearGradient></defs></svg>