<svg width="32" height="32" fill="none" xmlns="http://www.w3.org/2000/svg"><path d="M13.505 19.051l.5.034.017-.273-.22-.162-.297.401zm-.255 3.824l-.499-.033-.035.533h.534v-.5zm.255-3.824l-.335-.371-.454.41.491.363.298-.402zm6.956-6.277l-.332-.374-.003.003.335.371zm-.472-.157l-.26-.428-.007.005.267.423zm-8.585 5.416l-.148.477.22.069.195-.123-.266-.423zm-3.707-1.158l.149-.477h-.003l-.146.477zm.18-1.19l-.18-.467-.007.002.186.464zm14.448-5.572l.18.467.014-.006.013-.006-.207-.455zm1.045 1.169l-.485-.121-.002.008-.002.009.49.104zm-2.46 11.595l-.49-.104v.002l.49.102zm-1.36.64l-.297.402.026.02.03.016.241-.438zm-3.748-2.769l.297-.402-.342-.252-.304.296.349.358zM14 22.5l.348.358L14 22.5zm-.017.017l-.349-.359.349.358zM16 30.5C7.992 30.5 1.5 24.008 1.5 16h-1c0 8.56 6.94 15.5 15.5 15.5v-1zM30.5 16c0 8.008-6.492 14.5-14.5 14.5v1c8.56 0 15.5-6.94 15.5-15.5h-1zM16 1.5c8.008 0 14.5 6.492 14.5 14.5h1C31.5 7.44 24.56.5 16 .5v1zM1.5 16C1.5 7.992 7.992 1.5 16 1.5v-1C7.44.5.5 7.44.5 16h1zm11.506 3.018l-.255 3.824.998.066.255-3.823-.998-.067zm.201.435l.596-.803-.596.803zm6.919-7.05L13.17 18.68l.67.742 6.956-6.276-.67-.743zm.122.642a.43.43 0 01.13-.055c.035-.008.012.006-.05-.015a.367.367 0 01-.158-.112.414.414 0 01-.097-.28.342.342 0 01.048-.17c.014-.021.021-.025.008-.013l.663.748c.105-.092.27-.271.28-.528a.586.586 0 00-.137-.401.635.635 0 00-.282-.19.916.916 0 00-.478-.019c-.147.03-.3.091-.446.18l.519.855zm-8.577 5.41l8.585-5.415-.534-.846-8.584 5.416.533.846zm-4.123-1.102l3.708 1.157.297-.955-3.707-1.157-.298.955zm.142-2.133c-.279.112-.52.247-.701.408-.18.159-.342.379-.37.659a.863.863 0 00.286.718c.173.164.403.274.645.349l.293-.957a.68.68 0 01-.252-.12c-.008-.008 0-.002.01.02.01.024.016.056.013.089-.006.062-.035.055.037-.008.069-.061.198-.144.412-.23l-.373-.928zm14.455-5.573l-14.448 5.57.36.934 14.448-5.571-.36-.933zm1.71 1.756c.151-.607.066-1.185-.318-1.556-.39-.378-.948-.403-1.418-.19l.413.911c.189-.085.28-.03.31-.002.036.035.144.191.043.595l.97.242zM21.4 22.98l2.46-11.596-.978-.207-2.46 11.595.978.208zm-2.09.974c.403.223.878.35 1.32.15.445-.2.67-.647.77-1.126l-.979-.204c-.072.345-.182.41-.202.418-.022.01-.14.045-.427-.113l-.483.875zm-3.804-2.805l3.748 2.77.594-.805-3.748-2.77-.594.805zm-1.156 1.709l1.801-1.753-.697-.716-1.802 1.752.698.716zm-.017.016l.016-.017-.697-.716-.017.016.698.717zm-1.082.5c.265 0 .485-.061.678-.173.176-.102.311-.237.404-.327l-.698-.717c-.109.107-.157.15-.207.179a.323.323 0 01-.177.038v1z" fill="#fff"/></svg>