<svg width="32" height="32" fill="none" xmlns="http://www.w3.org/2000/svg"><path d="M16.785 20.923v.5h.027l.027-.003-.054-.497zm.436-.188l.363.344-.363-.344zm-1.393.188v-.5H15.8l.03.5zm-3.968-1.775l-.357.35.357-.35zm-3.817-6.182l-.466.179.004.01.004.01.458-.199zm.01-.4l.378.327-.379-.327zm.469-.155l-.004-.5h-.01l.014.5zm2.285-.015l.08-.494-.041-.006h-.042l.003.5zm.37.146l.293-.405-.293.405zm.199.263l.463-.186-.002-.005-.461.191zm.858 1.747l-.43.254.43-.254zm1.724 1.8l-.236-.44.236.44zm.331-2.29l-.5-.005v.02l.001.02.5-.034zm-.238-1.068l.4-.3-.4.3zm-.71-.35l-.064.496.064-.496zm.357-.442l.216.451-.216-.45zm1.996-.2l.005-.5-.005.5zm1.123.11l-.116.486.116-.486zm.547 1.598l-.5-.02.5.02zm-.032 1.323l-.5-.013.5.014zm.311 1.31l-.268.422h.001l.267-.422zm1.675-1.77l.428.258-.428-.257zm.888-1.84l-.452-.214-.008.017-.007.018.467.178zm.213-.254l-.253-.431.253.43zm.31-.054l-.066.496.035.004h.035l-.003-.5zm2.406-.014l.003.5h.028l.028-.004-.059-.496zm.84.235l-.47.171v.001l.47-.172zm-1.253 2.407l-.397-.304.397.304zm-1.345 2.067l-.497.052.498-.052zm.892 1.068l.337-.37-.337.37zm1.574 1.78l.437-.245-.437.244zm.014.024l.427-.261-.002-.002-.425.263zm-.587.93l.007.5h.023l-.03-.5zm-2.137.03l-.007-.5h-.045l-.044.009.096.49zm-1.063-.318l.28-.415-.28.415zm-.92-.893l-.374.332.374-.332zm-1.22-.863l-.15-.478.15.478zm-.578 1.445l-.5.007v.001l.5-.008zM1.5 16C1.5 7.992 7.992 1.5 16 1.5v-1C7.44.5.5 7.44.5 16h1zM16 30.5C7.992 30.5 1.5 24.008 1.5 16h-1c0 8.56 6.94 15.5 15.5 15.5v-1zM30.5 16c0 8.008-6.492 14.5-14.5 14.5v1c8.56 0 15.5-6.94 15.5-15.5h-1zM16 1.5c8.008 0 14.5 6.492 14.5 14.5h1C31.5 7.44 24.56.5 16 .5v1zm.785 19.423l.054.497h.004l.007-.002a1.03 1.03 0 00.072-.011c.043-.008.103-.02.17-.041.119-.036.328-.114.492-.287l-.725-.688c.015-.017.006-.001-.056.018a.569.569 0 01-.076.017h-.001.004l.055.497zm-.957.5h.957v-1h-.957v1zm-4.325-1.925a6.403 6.403 0 002.907 1.732c.414.112.767.16 1.02.18a4.145 4.145 0 00.414.012h.013l-.029-.5-.029-.499h.002-.01l-.054.001a3.16 3.16 0 01-.228-.01 4.62 4.62 0 01-.837-.15c-.69-.186-1.598-.59-2.455-1.466l-.714.7zm-3.46-6.532l-.458.2.002.003c0 .003.002.006.004.01a18.674 18.674 0 00.078.174 35.489 35.489 0 001.083 2.166c.706 1.295 1.687 2.891 2.75 3.979l.715-.7c-.963-.984-1.89-2.478-2.586-3.757a34.505 34.505 0 01-1.129-2.274l-.459.199zm-.37-.726c-.208.242-.177.542-.162.645a1.28 1.28 0 00.061.249l.003.006v.003h.001v.001a111.617 111.617 0 00.935-.357v.003l.001.002s0 .001 0 0a.287.287 0 01-.012-.048c-.001-.013.001-.01-.001.009a.28.28 0 01-.068.14l-.758-.653zm.849.17l-.014-.5h-.004l-.007.001a1.5 1.5 0 00-.262.033 1.303 1.303 0 00-.254.077.842.842 0 00-.308.22l.758.651c-.036.043-.067.053-.055.048a.751.751 0 01.158-.029h.002l-.014-.5zm2.282-.514l-2.286.015.007 1 2.286-.015-.007-1zm.666.24a1.346 1.346 0 00-.388-.186 1.628 1.628 0 00-.173-.044l-.014-.002-.005-.001h-.003l-.08.493-.079.494h-.002l-.002-.001.012.002c.012.003.03.007.05.014a.377.377 0 01.098.042l.586-.81zm-.094.67l.461-.193v-.001l-.001-.002a.398.398 0 00-.008-.018 1.074 1.074 0 00-.08-.148 1.061 1.061 0 00-.278-.307l-.586.81c-.012-.008-.003-.004.015.025a.377.377 0 01.016.027c0 .003.002.005.002.005l-.001-.002V13h-.003v-.001l.462-.193zm1.289 1.492c-.233-.395-.44-.815-.59-1.14a15.31 15.31 0 01-.235-.538v-.001l-.464.186-.464.187v.001l.001.003.004.009.014.033.05.12a15.674 15.674 0 00.822 1.649l.862-.509zm1.057 1.614a.177.177 0 01.123-.014c.002.001-.049-.018-.16-.128-.222-.22-.544-.665-1.02-1.472l-.862.508c.48.813.857 1.356 1.177 1.674.16.16.341.298.548.367a.827.827 0 00.666-.053l-.472-.882zm.567-1.85l-.499.036v.003l.002.015a9.685 9.685 0 01.01.975 3.921 3.921 0 01-.08.683.818.818 0 01-.058.178c-.018.035-.008-.005.058-.04l.472.882a.882.882 0 00.358-.382c.067-.13.112-.274.144-.41a4.8 4.8 0 00.104-.867 10.567 10.567 0 00-.012-1.099v-.007l-.499.034zm-.638-.768c.038.05.088.2.116.421a2.955 2.955 0 01.022.34v.003l.5.005.5.005v-.044a3.689 3.689 0 00-.03-.435c-.03-.23-.1-.616-.307-.894l-.801.599zm-.374-.154c.055.007.14.024.223.056.085.034.13.071.15.098l.801-.6a1.33 1.33 0 00-.582-.427 1.969 1.969 0 00-.463-.119l-.13.992zm.204-1.388a1.456 1.456 0 00-.508.409.802.802 0 00-.16.334.542.542 0 00.464.645l.13-.992a.459.459 0 01.389.53c-.016.087-.053.121-.032.094a.473.473 0 01.15-.119l-.433-.901zm2.218-.25a14.377 14.377 0 00-1.21.024c-.355.028-.716.085-1.008.226l.433.901c.12-.057.328-.104.653-.13.316-.024.692-.025 1.122-.021l.01-1zm1.234.123c-.303-.072-.533-.116-1.234-.123l-.01 1c.637.006.792.044 1.012.096l.232-.973zm.93 2.105c.02-.462.043-.916-.046-1.262a1.122 1.122 0 00-.308-.548 1.227 1.227 0 00-.577-.295l-.23.973c.093.022.117.046.117.046a.041.041 0 01.008.012.268.268 0 01.022.06c.043.168.037.441.015.973l1 .041zm-.026 1.02c0-.387.014-.722.026-1.02l-.999-.04c-.012.296-.027.65-.027 1.06h1zm-.005.297c.002-.096.005-.199.005-.297h-1c0 .082-.002.17-.005.27l1 .027zm.08.874c.013.009-.034-.01-.064-.2a3.96 3.96 0 01-.016-.674l-1-.027c-.007.243-.017.564.028.855.044.282.16.664.515.89l.536-.844zm.977-1.605c-.53.883-.872 1.298-1.076 1.479-.102.09-.136.092-.11.085a.28.28 0 01.207.04l-.534.846a.724.724 0 00.578.082c.188-.049.36-.162.522-.305.322-.285.729-.81 1.27-1.712l-.857-.515zm1.317-1.584l-.467-.178v.002l-.004.007a11.558 11.558 0 01-.846 1.754l.858.514c.268-.447.5-.928.662-1.291a15.495 15.495 0 00.259-.615l.004-.01v-.003h.001l-.467-.18zm-.04-.684a1.01 1.01 0 00-.314.303 1.348 1.348 0 00-.094.16l-.002.005-.001.001v.001h-.001l.452.214.452.214v.001l-.001.001v.002l-.001.001s0-.002.003-.005a.352.352 0 01.017-.028c.022-.032.025-.025-.003-.008l-.508-.862zm.564.377l.065-.495h-.002l-.002-.001h-.006l-.015-.002a1.168 1.168 0 00-.177-.003.965.965 0 00-.427.124l.506.862c-.03.018-.042.014-.018.012h.016a.137.137 0 00-.005-.001h-.001l.066-.496zm2.402-.514l-2.405.014.006 1 2.405-.014-.006-1zm1.313.565a.81.81 0 00-.449-.46 1.432 1.432 0 00-.437-.106 2.43 2.43 0 00-.467.002l-.01.001h-.004v.001h-.001a122.346 122.346 0 00.116.993h.001a.61.61 0 01.077-.005 1.4 1.4 0 01.192.004.539.539 0 01.13.025c.014.007-.054-.019-.088-.114l.94-.341zm-1.326 2.88c.499-.651.863-1.196 1.088-1.633.113-.219.2-.427.247-.62a1.07 1.07 0 00-.01-.628l-.939.343c-.018-.05.003-.052-.021.045-.022.09-.072.22-.165.401-.186.36-.51.852-.994 1.485l.794.608zm-1.244 1.712c0 .01-.014-.06.216-.382.221-.31.542-.693 1.028-1.33l-.794-.607c-.446.584-.819 1.035-1.047 1.355-.22.306-.44.66-.398 1.068l.995-.104zm.73.75a9.823 9.823 0 01-.61-.581c-.126-.142-.122-.182-.12-.17l-.995.105c.032.303.199.54.37.73.17.19.409.407.682.656l.674-.74zm1.675 1.905c-.105-.187-.457-.795-1.674-1.905l-.674.74c1.146 1.044 1.427 1.569 1.475 1.653l.873-.488zm.002.006a.078.078 0 01.004.006l-.006-.012-.873.488.026.045.85-.527zm-1.012 1.194l.03.499h.004l.006-.001.016-.001a1.66 1.66 0 00.21-.032 1.57 1.57 0 00.479-.176.946.946 0 00.46-.595c.073-.304-.02-.608-.192-.886l-.852.523c.095.153.06.181.072.132.012-.052.045-.059.007-.037a.612.612 0 01-.175.06.973.973 0 01-.099.015h.003l.03.499zm-2.13.529l2.137-.03-.014-1-2.137.03.013 1zm-1.35-.404c.367.248.704.353.963.392a1.698 1.698 0 00.452.006.345.345 0 00.013-.002h.005l.003-.001h.001l-.094-.491-.095-.491h.001a.079.079 0 00.005-.001l.005-.001h-.017a.626.626 0 01-.13-.008 1.36 1.36 0 01-.553-.232l-.559.83zm-1.014-.975c.281.317.635.72 1.015.976l.558-.83c-.253-.17-.518-.464-.826-.81l-.747.664zm-.698-.718c-.085.027-.08-.044.11.111.167.135.354.344.588.607l.747-.664c-.216-.243-.461-.521-.703-.719-.22-.178-.599-.427-1.04-.29l.298.955zm-.726.968l.5-.007v-.038a2.93 2.93 0 01.055-.507c.03-.143.07-.261.116-.342.045-.08.07-.078.055-.074l-.297-.955a1.112 1.112 0 00-.627.535 2.196 2.196 0 00-.226.634 3.811 3.811 0 00-.076.739v.021l.5-.006zm.232.756c.168-.177.224-.396.245-.513a1.408 1.408 0 00.023-.223v-.028l-.5.008-.5.008v-.005s0-.001 0 0a.28.28 0 01-.006.058c-.01.054-.02.041.012.007l.726.688z" fill="#fff"/></svg>