<svg width="32" height="32" fill="none" xmlns="http://www.w3.org/2000/svg"><path d="M16.494 24.345v.5-.5zm8.92-8.92l.5.001h-.5zm-8.923 8.92v.5-.5zm-4.263-1.085l.24-.44-.175-.094-.191.05.126.484zM7.5 24.5l-.482-.132-.229.835.838-.22L7.5 24.5zm1.265-4.622l.483.132.055-.201-.105-.18-.433.249zm-1.19-4.46l.5.001h-.5zm8.92-8.918V6v.5zm6.309 2.616l-.354.353.354-.353zM16 30.5C7.992 30.5 1.5 24.008 1.5 16h-1c0 8.56 6.94 15.5 15.5 15.5v-1zM30.5 16c0 8.008-6.492 14.5-14.5 14.5v1c8.56 0 15.5-6.94 15.5-15.5h-1zM16 1.5c8.008 0 14.5 6.492 14.5 14.5h1C31.5 7.44 24.56.5 16 .5v1zM1.5 16C1.5 7.992 7.992 1.5 16 1.5v-1C7.44.5.5 7.44.5 16h1zm14.995 8.845c5.193-.002 9.417-4.226 9.419-9.419h-1c-.002 4.64-3.778 8.417-8.42 8.42v1zm-.004 0h.003v-1h-.003v1zM11.989 23.7a9.412 9.412 0 004.502 1.146v-1a8.411 8.411 0 01-4.023-1.024l-.48.878zm-4.362 1.285l4.728-1.24-.254-.968-4.728 1.24.254.968zm.656-5.238l-1.265 4.622.964.264 1.266-4.622-.965-.264zM7.075 15.42c0 1.66.433 3.28 1.257 4.709l.866-.5a8.403 8.403 0 01-1.123-4.209h-1zM16.495 6c-5.193 0-9.418 4.225-9.42 9.419h1C8.077 10.777 11.855 7 16.495 7V6zm6.663 2.763A9.362 9.362 0 0016.494 6v1a8.362 8.362 0 015.956 2.47l.708-.707zm2.756 6.663a9.365 9.365 0 00-2.756-6.663l-.708.706a8.365 8.365 0 012.464 5.957h1z" fill="#fff"/><path d="M20.988 17.547l-.429.257.429-.257zm-.427-.26l.224-.447-.224.447zm-1.523-.726l.171-.47-.171.47zm-.501.112l-.417-.277.417.277zm-.706.874l.376.33v-.001l-.376-.329zm-.483.056l.224-.447-.224.447zm-1.792-1.106l-.333.373.333-.373zm-1.24-1.544l-.432.251.432-.251zm.098-.455l.353.354-.353-.354zm.557-.762l.447.223-.447-.223zm-.019-.39l-.447.223.447-.224zm-.687-1.656l.462-.192-.462.192zm-.501-.382l-.025.5.025-.5zm-1.022.27l-.369-.337.37.338zm.13 4.165l.4-.3-.4.3zm3.808 3.366l.198-.46-.198.46zm1.27.47l.151-.477-.151.476zm1.404.087l-.074-.494.074.494zm1.504-1.06l.471.169-.47-.168zm.559-1.316a.866.866 0 00-.34-.305c-.08-.044-.21-.104-.292-.145l-.448.894.159.077c.046.023.077.038.1.051.025.013.028.017.022.012a.263.263 0 01-.059-.07l.858-.514zm-.632-.45a74.85 74.85 0 00-.775-.38c-.313-.151-.669-.32-.8-.368l-.343.94c.072.026.367.164.708.328.326.158.653.32.762.374l.448-.895zm-1.576-.748c-.087-.032-.284-.108-.5-.083-.27.031-.46.195-.589.387l.833.554c.013-.02.01-.008-.017.01a.242.242 0 01-.113.043c-.035.004-.053-.003-.042 0 .014.003.037.01.086.028l.342-.94zm-1.089.304c-.126.19-.53.667-.666.822l.753.658c.125-.142.575-.67.746-.926l-.833-.554zm-.666.822c-.01.011-.005.003.016-.01a.237.237 0 01.094-.032.156.156 0 01.059.002l-.013-.005a.496.496 0 01-.038-.017l-.448.894c.145.072.34.146.56.119a.822.822 0 00.523-.293l-.753-.658zm.118-.062c-.272-.136-.897-.331-1.683-1.033l-.666.747c.916.817 1.727 1.093 1.901 1.18l.448-.894zm-1.683-1.033c-.604-.538-1.02-1.213-1.141-1.422l-.864.503c.138.238.617 1.022 1.339 1.666l.666-.747zm-1.141-1.422c-.007-.011.004.003.009.039.005.04 0 .082-.014.117-.012.032-.025.046-.02.041a.702.702 0 01.043-.046l-.705-.708c-.043.042-.184.174-.255.365a.8.8 0 00.078.695l.864-.503zm.019.151c.117-.117.282-.327.36-.42l-.759-.65c-.143.168-.224.279-.307.362l.706.708zm.36-.42c.162-.187.228-.347.291-.473l-.894-.447c-.086.172-.094.198-.156.27l.76.65zm.291-.473c.176-.353.068-.663-.018-.837l-.895.447c.007.013.01.02.01.023l-.002-.012a.141.141 0 01.01-.068l.895.447zm-.018-.837l-.026-.06a84.089 84.089 0 01-.254-.61l-.393-.954-.924.384c.093.222.25.606.392.952.135.328.271.657.31.735l.895-.447zm-.673-1.624c-.113-.27-.27-.495-.516-.611-.205-.097-.477-.081-.422-.079l-.05 1h.08a.53.53 0 01.027 0l-.018-.002a.203.203 0 01-.044-.015c-.034-.017-.048-.035-.044-.03.007.009.03.042.063.122l.924-.385zm-.938-.69a9.31 9.31 0 00-.453-.008v1c.148 0 .286.001.403.007l.05-.999zm-.453-.008c-.263 0-.648.097-.963.441l.738.675a.324.324 0 01.225-.116v-1zm-.963.441c-.206.226-.91.892-.91 2.197h1c0-.888.446-1.301.648-1.522l-.738-.675zm-.91 2.197c0 .661.237 1.282.467 1.735.233.46.481.789.542.87l.8-.6c-.05-.067-.257-.341-.45-.723-.198-.389-.36-.846-.36-1.282h-1zm1.009 2.605l.006.009.02.03.07.098a12.009 12.009 0 001.046 1.282c.683.728 1.662 1.585 2.867 2.106l.397-.918c-2.088-.902-3.467-3.022-3.605-3.206l-.801.6zm4.01 3.525c.553.239.986.382 1.317.487l.302-.953a12.32 12.32 0 01-1.223-.452l-.397.918zm1.317.487a3.55 3.55 0 001.629.106l-.148-.989a2.558 2.558 0 01-1.179-.07l-.302.953zm1.629.106c.307-.046.704-.218 1.039-.432.322-.207.711-.532.862-.954l-.942-.336c-.035.098-.184.27-.46.448-.264.17-.527.267-.647.285l.148.989zm1.901-1.386c.107-.302.163-.585.183-.816.01-.114.011-.223.004-.32a.81.81 0 00-.1-.35l-.857.515a.319.319 0 01-.04-.097c-.002-.007-.001-.005 0 .01a.999.999 0 01-.004.157 2.3 2.3 0 01-.128.565l.942.336z" fill="#fff"/></svg>